
# Blender v2.78 (sub 0) OBJ File: 'marbletest.blend'
# www.blender.org
o ForwardUp_Circle.005
v -1.000000 0.000000 -1.000000
v -0.665176 -0.444455 -1.000000
v -0.565686 -0.565685 -1.000000
v -0.444457 -0.665175 -1.000000
v -0.306148 -0.739103 -1.000000
v -0.156073 -0.784628 -1.000000
v -0.000001 -0.800000 -1.000000
v 0.156072 -0.784628 -1.000000
v 0.306146 -0.739104 -1.000000
v 0.444456 -0.665176 -1.000000
v 0.565685 -0.565686 -1.000000
v 0.665175 -0.444457 -1.000000
v 0.739103 -0.306147 -1.000000
v 0.784628 -0.156073 -1.000000
v 0.800000 -0.000000 -1.000000
v -0.800000 0.000000 -1.000000
v 1.000000 -0.000000 -1.000000
v 0.980785 -0.195091 -1.000000
v 0.923879 -0.382684 -1.000000
v 0.831469 -0.555571 -1.000000
v 0.707106 -0.707107 -1.000000
v 0.555570 -0.831470 -1.000000
v 0.382683 -0.923880 -1.000000
v 0.195089 -0.980785 -1.000000
v -0.000001 -1.000000 -1.000000
v -0.195091 -0.980785 -1.000000
v -0.382684 -0.923879 -1.000000
v -0.555571 -0.831469 -1.000000
v -0.707108 -0.707106 -1.000000
v -0.831470 -0.555569 -1.000000
v -0.923880 -0.382682 -1.000000
v -0.980786 -0.195089 -1.000000
v -0.739104 -0.306146 -1.000000
v -0.784628 -0.156071 -1.000000
v -1.000000 1.000000 3.000000
v -0.665176 0.555544 3.000000
v -0.565686 0.434315 3.000000
v -0.444457 0.334825 3.000000
v -0.306148 0.260896 3.000000
v -0.156073 0.215372 3.000000
v -0.000001 0.200000 3.000000
v 0.156072 0.215371 3.000000
v 0.306146 0.260896 3.000000
v 0.444456 0.334824 3.000000
v 0.565685 0.434314 3.000000
v 0.665175 0.555543 3.000000
v 0.739104 0.693852 3.000000
v 0.784628 0.843927 3.000000
v 0.800000 0.999999 3.000000
v -0.800000 1.000000 3.000000
v 1.000000 0.999999 3.000000
v 0.980785 0.804909 3.000000
v 0.923879 0.617316 3.000000
v 0.831469 0.444429 3.000000
v 0.707106 0.292893 3.000000
v 0.555570 0.168530 3.000000
v 0.382683 0.076120 3.000000
v 0.195090 0.019214 3.000000
v -0.000001 -0.000000 3.000000
v -0.195091 0.019215 3.000000
v -0.382684 0.076121 3.000000
v -0.555571 0.168531 3.000000
v -0.707108 0.292894 3.000000
v -0.831470 0.444431 3.000000
v -0.923880 0.617318 3.000000
v -0.980785 0.804911 3.000000
v -0.739104 0.693854 3.000000
v -0.784628 0.843929 3.000000
vn 0.0000 0.0000 -1.0000
vn 0.0000 0.0000 1.0000
vn 0.6887 -0.7034 0.1759
vn 0.5510 -0.8096 0.2024
vn 0.5371 -0.8184 0.2046
vn 0.1867 0.9531 -0.2383
vn 0.0000 0.9701 -0.2425
vn 0.3782 -0.8981 0.2245
vn 0.3677 -0.9022 0.2255
vn -0.1867 0.9531 -0.2383
vn -0.1924 0.9520 -0.2380
vn 0.1924 -0.9520 0.2380
vn 0.1867 -0.9531 0.2383
vn -0.3677 0.9022 -0.2255
vn -0.3782 0.8981 -0.2245
vn -0.0000 -0.9701 0.2425
vn -0.5371 0.8184 -0.2046
vn -0.5510 0.8096 -0.2024
vn -0.1867 -0.9531 0.2383
vn -0.1924 -0.9520 0.2380
vn -0.6887 0.7034 -0.1759
vn -0.7041 0.6889 -0.1722
vn -0.3677 -0.9022 0.2255
vn -0.3782 -0.8981 0.2245
vn -0.8163 0.5603 -0.1401
vn -0.8309 0.5399 -0.1350
vn -0.5371 -0.8184 0.2046
vn -0.5511 -0.8096 0.2024
vn -0.9140 0.3936 -0.0984
vn -0.9253 0.3679 -0.0920
vn 0.9949 0.0980 -0.0245
vn 0.9826 0.1801 -0.0450
vn 0.9764 0.2094 -0.0524
vn -0.6887 -0.7034 0.1759
vn -0.7041 -0.6889 0.1722
vn -0.9764 0.2094 -0.0524
vn -0.9826 0.1801 -0.0450
vn 0.9253 0.3679 -0.0920
vn 0.9140 0.3936 -0.0984
vn -0.8163 -0.5603 0.1401
vn -0.8309 -0.5399 0.1350
vn -0.9949 0.0980 -0.0245
vn 0.8309 0.5399 -0.1350
vn 0.8163 0.5603 -0.1401
vn -0.9140 -0.3936 0.0984
vn -0.9253 -0.3679 0.0920
vn 0.9949 -0.0980 0.0245
vn 0.9826 -0.1801 0.0450
vn 0.9764 -0.2094 0.0524
vn 0.7041 0.6889 -0.1722
vn 0.6887 0.7034 -0.1759
vn -0.9764 -0.2094 0.0524
vn -0.9826 -0.1801 0.0450
vn 0.9253 -0.3679 0.0920
vn 0.9140 -0.3936 0.0984
vn 0.5511 0.8096 -0.2024
vn 0.5371 0.8184 -0.2046
vn -0.9949 -0.0980 0.0245
vn 0.8309 -0.5399 0.1350
vn 0.8163 -0.5603 0.1401
vn 0.3782 0.8981 -0.2245
vn 0.3677 0.9022 -0.2255
vn 0.7041 -0.6889 0.1722
vn 0.1924 0.9520 -0.2380
s 1
f 33//1 30//1 31//1
f 24//1 9//1 23//1
f 34//1 31//1 32//1
f 7//1 24//1 25//1
f 18//1 15//1 17//1
f 16//1 32//1 1//1
f 6//1 25//1 26//1
f 13//1 18//1 19//1
f 27//1 6//1 26//1
f 20//1 13//1 19//1
f 4//1 27//1 28//1
f 21//1 12//1 20//1
f 29//1 4//1 28//1
f 22//1 11//1 21//1
f 2//1 29//1 30//1
f 9//1 22//1 23//1
f 65//2 36//2 67//2
f 57//2 42//2 58//2
f 65//2 68//2 66//2
f 58//2 41//2 59//2
f 52//2 49//2 48//2
f 66//2 50//2 35//2
f 60//2 41//2 40//2
f 53//2 48//2 47//2
f 60//2 39//2 61//2
f 54//2 47//2 46//2
f 61//2 38//2 62//2
f 55//2 46//2 45//2
f 63//2 38//2 37//2
f 55//2 44//2 56//2
f 63//2 36//2 64//2
f 57//2 44//2 43//2
f 21//3 56//4 22//5
f 6//6 41//7 7//7
f 22//5 57//8 23//9
f 8//10 41//7 42//11
f 23//9 58//12 24//13
f 9//14 42//11 43//15
f 24//13 59//16 25//16
f 10//17 43//15 44//18
f 26//19 59//16 60//20
f 11//21 44//18 45//22
f 15//7 51//7 17//7
f 27//23 60//20 61//24
f 12//25 45//22 46//26
f 28//27 61//24 62//28
f 13//29 46//26 47//30
f 1//7 50//7 16//7
f 16//31 68//32 34//33
f 29//34 62//28 63//35
f 14//36 47//30 48//37
f 34//33 67//38 33//39
f 30//40 63//35 64//41
f 15//42 48//37 49//42
f 33//39 36//43 2//44
f 31//45 64//41 65//46
f 17//47 52//48 18//49
f 2//44 37//50 3//51
f 32//52 65//46 66//53
f 18//49 53//54 19//55
f 3//51 38//56 4//57
f 1//58 66//53 35//58
f 19//55 54//59 20//60
f 4//57 39//61 5//62
f 20//60 55//63 21//3
f 5//62 40//64 6//6
f 33//1 2//1 30//1
f 24//1 8//1 9//1
f 34//1 33//1 31//1
f 7//1 8//1 24//1
f 18//1 14//1 15//1
f 16//1 34//1 32//1
f 6//1 7//1 25//1
f 13//1 14//1 18//1
f 27//1 5//1 6//1
f 20//1 12//1 13//1
f 4//1 5//1 27//1
f 21//1 11//1 12//1
f 29//1 3//1 4//1
f 22//1 10//1 11//1
f 2//1 3//1 29//1
f 9//1 10//1 22//1
f 65//2 64//2 36//2
f 57//2 43//2 42//2
f 65//2 67//2 68//2
f 58//2 42//2 41//2
f 52//2 51//2 49//2
f 66//2 68//2 50//2
f 60//2 59//2 41//2
f 53//2 52//2 48//2
f 60//2 40//2 39//2
f 54//2 53//2 47//2
f 61//2 39//2 38//2
f 55//2 54//2 46//2
f 63//2 62//2 38//2
f 55//2 45//2 44//2
f 63//2 37//2 36//2
f 57//2 56//2 44//2
f 21//3 55//63 56//4
f 6//6 40//64 41//7
f 22//5 56//4 57//8
f 8//10 7//7 41//7
f 23//9 57//8 58//12
f 9//14 8//10 42//11
f 24//13 58//12 59//16
f 10//17 9//14 43//15
f 26//19 25//16 59//16
f 11//21 10//17 44//18
f 15//7 49//7 51//7
f 27//23 26//19 60//20
f 12//25 11//21 45//22
f 28//27 27//23 61//24
f 13//29 12//25 46//26
f 1//7 35//7 50//7
f 16//31 50//31 68//32
f 29//34 28//27 62//28
f 14//36 13//29 47//30
f 34//33 68//32 67//38
f 30//40 29//34 63//35
f 15//42 14//36 48//37
f 33//39 67//38 36//43
f 31//45 30//40 64//41
f 17//47 51//47 52//48
f 2//44 36//43 37//50
f 32//52 31//45 65//46
f 18//49 52//48 53//54
f 3//51 37//50 38//56
f 1//58 32//52 66//53
f 19//55 53//54 54//59
f 4//57 38//56 39//61
f 20//60 54//59 55//63
f 5//62 39//61 40//64
