# Blender v2.78 (sub 0) OBJ File: 'marbles.blend'
# www.blender.org
mtllib crate.mtl
o Crate_Cube.007
v 0.862426 -0.751981 -0.972287
v 0.862426 1.102569 -0.972287
v 0.862426 -0.751981 -1.081852
v 0.862426 1.102569 -1.081852
v 0.971991 -0.751981 -0.972287
v 0.971991 1.102569 -0.972287
v 0.971991 -0.751981 -1.081852
v 0.971991 1.102569 -1.081852
v -1.203652 -0.751981 -0.972287
v -1.203652 1.102569 -0.972287
v -1.203652 -0.751981 -1.081852
v -1.203652 1.102569 -1.081852
v -1.094087 -0.751981 -0.972287
v -1.094087 1.102569 -0.972287
v -1.094087 -0.751981 -1.081852
v -1.094087 1.102569 -1.081852
v -1.203652 -0.751981 1.106187
v -1.203652 1.102569 1.106188
v -1.203652 -0.751981 0.996622
v -1.203652 1.102569 0.996622
v -1.094087 -0.751981 1.106187
v -1.094087 1.102569 1.106188
v -1.094087 -0.751981 0.996622
v -1.094087 1.102569 0.996622
v 0.854162 -0.751981 1.106187
v 0.854162 1.102569 1.106187
v 0.854162 -0.751981 0.996622
v 0.854162 1.102569 0.996622
v 0.963727 -0.751981 1.106187
v 0.963727 1.102569 1.106187
v 0.963727 -0.751981 0.996622
v 0.963727 1.102569 0.996622
v 0.855419 0.493818 -1.038102
v 0.855419 0.949518 -1.022859
v 0.933562 0.493818 -1.038102
v 0.933562 0.949518 -1.022859
v 0.855421 0.420906 1.141555
v 0.855421 0.876605 1.156799
v 0.933564 0.420906 1.141555
v 0.933564 0.876605 1.156799
v 0.855419 -0.312045 -1.001520
v 0.855419 0.141436 -1.048947
v 0.933562 -0.312045 -1.001520
v 0.933562 0.141436 -1.048947
v 0.855421 -0.085195 1.167526
v 0.855421 0.368286 1.120099
v 0.933564 -0.085195 1.167526
v 0.933564 0.368286 1.120099
v 0.855419 -0.759959 -1.020591
v 0.855419 -0.304404 -1.039684
v 0.933562 -0.759959 -1.020591
v 0.933562 -0.304404 -1.039684
v 0.855421 -0.668638 1.158373
v 0.855421 -0.213083 1.139280
v 0.933564 -0.668638 1.158373
v 0.933564 -0.213083 1.139280
v 0.964058 -0.804444 1.010453
v 0.964670 -0.348490 1.010453
v 0.964058 -0.804444 1.088596
v 0.964670 -0.348490 1.088596
v -1.216817 -0.801519 1.010455
v -1.216205 -0.345565 1.010455
v -1.216817 -0.801519 1.088598
v -1.216205 -0.345565 1.088598
v 0.944523 -0.175624 1.010453
v 0.978286 0.279079 1.010453
v 0.944523 -0.175624 1.088596
v 0.978286 0.279079 1.088596
v -1.230367 -0.014130 1.010454
v -1.196603 0.440573 1.010454
v -1.230367 -0.014130 1.088597
v -1.196603 0.440573 1.088597
v 0.975690 0.525180 1.010453
v 0.949471 0.980380 1.010453
v 0.975690 0.525180 1.088596
v 0.949471 0.980380 1.088596
v -1.201578 0.399771 1.010454
v -1.227797 0.854971 1.010454
v -1.201578 0.399771 1.088597
v -1.227797 0.854970 1.088597
v -1.102832 0.525180 1.134574
v -1.102832 0.980380 1.108355
v -1.180975 0.525180 1.134574
v -1.180975 0.980380 1.108355
v -1.102832 0.399771 -1.042694
v -1.102832 0.854970 -1.068913
v -1.180975 0.399771 -1.042694
v -1.180975 0.854970 -1.068913
v -1.102832 -0.149705 1.118095
v -1.102832 0.306144 1.127903
v -1.180975 -0.149705 1.118095
v -1.180975 0.306144 1.127903
v -1.102832 -0.102793 -1.062277
v -1.102832 0.353055 -1.052469
v -1.180975 -0.102793 -1.062277
v -1.180975 0.353055 -1.052469
v -1.102832 -0.732400 1.106268
v -1.102832 -0.277398 1.135724
v -1.180975 -0.732400 1.106268
v -1.180975 -0.277398 1.135724
v -1.102832 -0.591510 -1.070053
v -1.102832 -0.136508 -1.040597
v -1.180975 -0.591510 -1.070053
v -1.180975 -0.136508 -1.040597
v -1.198788 -0.662537 -0.959368
v -1.169795 -0.207505 -0.959368
v -1.198788 -0.662537 -1.037511
v -1.169795 -0.207505 -1.037511
v 0.977675 -0.801214 -0.959368
v 1.006668 -0.346182 -0.959368
v 0.977675 -0.801214 -1.037511
v 1.006668 -0.346182 -1.037511
v -1.172684 -0.184651 -0.959368
v -1.197156 0.270646 -0.959368
v -1.172684 -0.184651 -1.037511
v -1.197156 0.270646 -1.037511
v 1.005049 -0.067599 -0.959368
v 0.980577 0.387698 -0.959368
v 1.005049 -0.067599 -1.037511
v 0.980577 0.387698 -1.037511
v -1.199182 0.520602 -0.975231
v -1.169052 0.975559 -0.975231
v -1.199182 0.520602 -1.053375
v -1.169052 0.975560 -1.053375
v 0.976927 0.376483 -0.975231
v 1.007058 0.831440 -0.975231
v 0.976927 0.376483 -1.053374
v 1.007058 0.831440 -1.053374
v -1.209977 -0.794011 1.090337
v -1.209977 -0.702213 1.090337
v -1.209977 -0.794011 -1.090337
v -1.209977 -0.702213 -1.090337
v 0.970698 -0.794011 1.090337
v 0.970698 -0.702213 1.090337
v 0.970698 -0.794011 -1.090337
v 0.970698 -0.702213 -1.090337
vn -1.0000 0.0000 0.0000
vn 0.0000 0.0000 -1.0000
vn 1.0000 -0.0000 0.0000
vn 0.0000 -0.0000 1.0000
vn 0.0000 -1.0000 0.0000
vn 0.0000 1.0000 0.0000
vn 0.0000 0.0334 -0.9994
vn 0.0000 -0.0334 0.9994
vn 0.0000 -0.9994 -0.0334
vn 0.0000 0.9994 0.0334
vn 0.0000 -0.1040 -0.9946
vn 0.0000 0.1040 0.9946
vn 0.0000 -0.9946 0.1040
vn 0.0000 0.9946 -0.1040
vn 0.0000 -0.0419 -0.9991
vn -0.0000 0.0419 0.9991
vn -0.0000 -0.9991 0.0419
vn 0.0000 0.9991 -0.0419
vn 1.0000 -0.0013 0.0000
vn -1.0000 0.0013 0.0000
vn -0.0013 -1.0000 0.0000
vn 0.0013 1.0000 0.0000
vn 0.9973 -0.0741 -0.0000
vn -0.9973 0.0741 -0.0000
vn -0.0740 -0.9973 0.0000
vn 0.0740 0.9973 0.0000
vn 0.9983 0.0575 0.0000
vn -0.9983 -0.0575 -0.0000
vn 0.0575 -0.9983 -0.0000
vn -0.0575 0.9983 0.0000
vn 0.0000 0.0575 0.9983
vn 0.0000 -0.0575 -0.9983
vn 0.0000 -0.9983 0.0575
vn 0.0000 0.9983 -0.0575
vn 0.0000 -0.0215 0.9998
vn 0.0000 0.0215 -0.9998
vn 0.0000 -0.9998 -0.0215
vn 0.0000 0.9998 0.0215
vn 0.0000 -0.0646 0.9979
vn 0.0000 0.0646 -0.9979
vn 0.0000 -0.9979 -0.0646
vn 0.0000 0.9979 0.0646
vn -0.9980 0.0636 0.0000
vn 0.9980 -0.0636 0.0000
vn -0.0636 -0.9980 0.0000
vn 0.0636 0.9980 -0.0000
vn -0.9986 -0.0537 0.0000
vn 0.9986 0.0537 0.0000
vn 0.0537 -0.9986 -0.0000
vn -0.0537 0.9986 0.0000
vn -0.9978 0.0661 0.0000
vn 0.9978 -0.0661 0.0000
vn -0.0661 -0.9978 0.0000
vn 0.0661 0.9978 0.0000
usemtl None
s off
f 1//1 2//1 4//1 3//1
f 3//2 4//2 8//2 7//2
f 7//3 8//3 6//3 5//3
f 5//4 6//4 2//4 1//4
f 3//5 7//5 5//5 1//5
f 8//6 4//6 2//6 6//6
f 9//1 10//1 12//1 11//1
f 11//2 12//2 16//2 15//2
f 15//3 16//3 14//3 13//3
f 13//4 14//4 10//4 9//4
f 11//5 15//5 13//5 9//5
f 16//6 12//6 10//6 14//6
f 17//1 18//1 20//1 19//1
f 19//2 20//2 24//2 23//2
f 23//3 24//3 22//3 21//3
f 21//4 22//4 18//4 17//4
f 19//5 23//5 21//5 17//5
f 24//6 20//6 18//6 22//6
f 25//1 26//1 28//1 27//1
f 27//2 28//2 32//2 31//2
f 31//3 32//3 30//3 29//3
f 29//4 30//4 26//4 25//4
f 27//5 31//5 29//5 25//5
f 32//6 28//6 26//6 30//6
f 33//7 34//7 36//7 35//7
f 35//3 36//3 40//3 39//3
f 39//8 40//8 38//8 37//8
f 37//1 38//1 34//1 33//1
f 35//9 39//9 37//9 33//9
f 40//10 36//10 34//10 38//10
f 41//11 42//11 44//11 43//11
f 43//3 44//3 48//3 47//3
f 47//12 48//12 46//12 45//12
f 45//1 46//1 42//1 41//1
f 43//13 47//13 45//13 41//13
f 48//14 44//14 42//14 46//14
f 49//15 50//15 52//15 51//15
f 51//3 52//3 56//3 55//3
f 55//16 56//16 54//16 53//16
f 53//1 54//1 50//1 49//1
f 51//17 55//17 53//17 49//17
f 56//18 52//18 50//18 54//18
f 57//19 58//19 60//19 59//19
f 59//4 60//4 64//4 63//4
f 63//20 64//20 62//20 61//20
f 61//2 62//2 58//2 57//2
f 59//21 63//21 61//21 57//21
f 64//22 60//22 58//22 62//22
f 65//23 66//23 68//23 67//23
f 67//4 68//4 72//4 71//4
f 71//24 72//24 70//24 69//24
f 69//2 70//2 66//2 65//2
f 67//25 71//25 69//25 65//25
f 72//26 68//26 66//26 70//26
f 73//27 74//27 76//27 75//27
f 75//4 76//4 80//4 79//4
f 79//28 80//28 78//28 77//28
f 77//2 78//2 74//2 73//2
f 75//29 79//29 77//29 73//29
f 80//30 76//30 74//30 78//30
f 81//31 82//31 84//31 83//31
f 83//1 84//1 88//1 87//1
f 87//32 88//32 86//32 85//32
f 85//3 86//3 82//3 81//3
f 83//33 87//33 85//33 81//33
f 88//34 84//34 82//34 86//34
f 89//35 90//35 92//35 91//35
f 91//1 92//1 96//1 95//1
f 95//36 96//36 94//36 93//36
f 93//3 94//3 90//3 89//3
f 91//37 95//37 93//37 89//37
f 96//38 92//38 90//38 94//38
f 97//39 98//39 100//39 99//39
f 99//1 100//1 104//1 103//1
f 103//40 104//40 102//40 101//40
f 101//3 102//3 98//3 97//3
f 99//41 103//41 101//41 97//41
f 104//42 100//42 98//42 102//42
f 105//43 106//43 108//43 107//43
f 107//2 108//2 112//2 111//2
f 111//44 112//44 110//44 109//44
f 109//4 110//4 106//4 105//4
f 107//45 111//45 109//45 105//45
f 112//46 108//46 106//46 110//46
f 113//47 114//47 116//47 115//47
f 115//2 116//2 120//2 119//2
f 119//48 120//48 118//48 117//48
f 117//4 118//4 114//4 113//4
f 115//49 119//49 117//49 113//49
f 120//50 116//50 114//50 118//50
f 121//51 122//51 124//51 123//51
f 123//2 124//2 128//2 127//2
f 127//52 128//52 126//52 125//52
f 125//4 126//4 122//4 121//4
f 123//53 127//53 125//53 121//53
f 128//54 124//54 122//54 126//54
f 129//1 130//1 132//1 131//1
f 131//2 132//2 136//2 135//2
f 135//3 136//3 134//3 133//3
f 133//4 134//4 130//4 129//4
f 131//5 135//5 133//5 129//5
f 136//6 132//6 130//6 134//6
