<?xml version="1.0" encoding="UTF-8" standalone="no"?>
<!-- Created with Inkscape (http://www.inkscape.org/) -->

<svg
   width="711.74915"
   height="546.28961"
   viewBox="0 0 188.31696 144.53913"
   version="1.1"
   id="svg5"
   xml:space="preserve"
   inkscape:version="1.1 (c68e22c387, 2021-05-23)"
   sodipodi:docname="flower.svg"
   xmlns:inkscape="http://www.inkscape.org/namespaces/inkscape"
   xmlns:sodipodi="http://sodipodi.sourceforge.net/DTD/sodipodi-0.dtd"
   xmlns="http://www.w3.org/2000/svg"
   xmlns:svg="http://www.w3.org/2000/svg"><sodipodi:namedview
     id="namedview7"
     pagecolor="#ffffff"
     bordercolor="#111111"
     borderopacity="1"
     inkscape:showpageshadow="0"
     inkscape:pageopacity="0"
     inkscape:pagecheckerboard="1"
     inkscape:deskcolor="#d1d1d1"
     inkscape:document-units="mm"
     showgrid="false"
     inkscape:zoom="0.75722503"
     inkscape:cx="266.1032"
     inkscape:cy="367.79027"
     inkscape:window-width="1920"
     inkscape:window-height="1017"
     inkscape:window-x="1912"
     inkscape:window-y="-8"
     inkscape:window-maximized="1"
     inkscape:current-layer="layer1"
     inkscape:pageshadow="2"
     fit-margin-top="0"
     fit-margin-left="0"
     fit-margin-right="0"
     fit-margin-bottom="0" /><defs
     id="defs2" /><g
     inkscape:label="Calque 1"
     inkscape:groupmode="layer"
     id="layer1"
     transform="translate(31.057987,60.964753)"><path
       style="fill:#4a8944;fill-opacity:1;stroke:none;stroke-width:0.335564px;stroke-linecap:butt;stroke-linejoin:miter;stroke-opacity:1"
       d="m 143.52057,-17.253998 c 9.72772,6.457889 17.27018,22.4789163 12.0125,32.904353 -4.9934,9.90139 -31.91104,9.40369 -31.91104,9.40369 0,0 17.58873,16.631815 14.29227,25.936299 -4.35019,12.278705 -23.66398,18.253683 -36.20178,14.71896 C 91.379308,62.796111 82.606311,39.780353 82.606311,39.780353 c 0,0 3.929024,29.79706 -5.957645,37.918076 -10.105918,8.30111 -30.092937,7.828124 -39.203645,-1.554467 -8.899421,-9.165001 -0.392012,-38.322564 -0.392012,-38.322564 0,0 -24.057886,30.789132 -40.670875,29.198742 -11.189576,-1.071197 -23.160492,-13.265947 -23.16483,-24.506679 -0.0046,-11.959673 24.6262878,-26.093105 24.6262878,-26.093105 0,0 -23.0826138,-1.437232 -26.9872698,-10.2295188 -5.854011,-13.1817346 2.376072,-34.9048382 15.751999,-40.3004052 12.60738631,-5.085553 37.047535,17.05173 37.047535,17.05173 0,0 -3.304879,-25.031086 4.186485,-33.371935 7.737628,-8.615037 23.901307,-13.982524 33.808382,-7.987558 10.41574,6.302768 9.051452,35.383385 9.051452,35.383385 0,0 7.791353,-28.069381 19.623196,-32.777722 9.808869,-3.903323 25.552419,-0.76443 30.490379,8.566507 5.19831,9.822903 -10.59629,31.612102 -10.59629,31.612102 0,0 24.04215,-7.767632 33.30111,-1.620939 z"
       id="path1003"
       sodipodi:nodetypes="aacaacaacaacaacaacaaca" /></g></svg>
