<?xml version="1.0" encoding="UTF-8" standalone="no"?>
<!-- Created with Inkscape (http://www.inkscape.org/) -->

<svg
   width="407.08206"
   height="104.8744"
   viewBox="0 0 107.70713 27.748018"
   version="1.1"
   id="svg5"
   xml:space="preserve"
   inkscape:version="1.1 (c68e22c387, 2021-05-23)"
   sodipodi:docname="mechanical_flower3_yellow.svg"
   xmlns:inkscape="http://www.inkscape.org/namespaces/inkscape"
   xmlns:sodipodi="http://sodipodi.sourceforge.net/DTD/sodipodi-0.dtd"
   xmlns="http://www.w3.org/2000/svg"
   xmlns:svg="http://www.w3.org/2000/svg"><sodipodi:namedview
     id="namedview7"
     pagecolor="#ffffff"
     bordercolor="#111111"
     borderopacity="1"
     inkscape:showpageshadow="0"
     inkscape:pageopacity="0"
     inkscape:pagecheckerboard="1"
     inkscape:deskcolor="#d1d1d1"
     inkscape:document-units="mm"
     showgrid="false"
     inkscape:zoom="2.1417558"
     inkscape:cx="164.11768"
     inkscape:cy="170.18747"
     inkscape:window-width="1920"
     inkscape:window-height="1017"
     inkscape:window-x="1912"
     inkscape:window-y="-8"
     inkscape:window-maximized="1"
     inkscape:current-layer="layer1"
     inkscape:pageshadow="2" /><defs
     id="defs2" /><g
     inkscape:label="Calque 1"
     inkscape:groupmode="layer"
     id="layer1"
     transform="translate(-5.3667321,-2.5903561)"><path
       style="fill:#e3e535;stroke-width:0.264583;fill-opacity:1"
       id="path989"
       d="" /><path
       style="fill:#e3e535;stroke-width:0.264583;fill-opacity:1"
       id="path987"
       d="" /><path
       style="fill:#e3e535;stroke-width:0.264583;fill-opacity:1"
       d="m 63.77529,15.06285 c -0.09701,-0.09701 -0.176389,-0.421076 -0.176389,-0.720139 0,-0.299062 -0.254703,-1.350781 -0.566007,-2.337152 l -0.566007,-1.793403 -1.881388,0.0041 c -1.034764,0.0022 -2.036759,0.102595 -2.226655,0.223036 -0.189895,0.120442 -0.514704,1.028818 -0.721796,2.018613 -0.412216,1.970181 -0.533969,2.212227 -0.919074,1.827121 -0.321476,-0.321475 0.380886,-3.862448 0.933382,-4.7056625 0.212524,-0.324352 0.556182,-1.153851 0.763685,-1.84333 0.454262,-1.509398 1.144625,-2.625704 1.491317,-2.411436 0.356535,0.22035 0.314118,0.818221 -0.08731,1.230688 -0.292061,0.300091 -0.982642,2.194384 -0.982642,2.69543 0,0.09226 0.727282,0.16774 1.616182,0.16774 1.612823,0 1.61582,-0.0015 1.441659,-0.69536 -0.09599,-0.382449 -0.532942,-1.053778 -0.971007,-1.491843 -0.569502,-0.569502 -0.715185,-0.877779 -0.511207,-1.081757 0.203978,-0.203978 0.53933,-0.02389 1.176764,0.631947 1.405085,1.445642 3.546898,8.4578455 2.583372,8.4578455 -0.121267,0 -0.299861,-0.07937 -0.396875,-0.176389 z"
       id="path3386" /><path
       style="fill:#e3e535;stroke-width:0.264583;fill-opacity:1"
       d="m 103.63662,14.703968 c -0.097,-0.09701 -0.17639,-0.421076 -0.17639,-0.720139 0,-0.299062 -0.2547,-1.350781 -0.566,-2.337152 l -0.56601,-1.7934031 -1.88139,0.0041 c -1.034764,0.0022 -2.036759,0.102595 -2.226655,0.2230361 -0.189895,0.120442 -0.514704,1.028818 -0.721796,2.018613 -0.412216,1.970181 -0.533969,2.212227 -0.919074,1.827121 -0.321476,-0.321475 0.380886,-3.862448 0.933382,-4.7056623 0.212524,-0.324352 0.556182,-1.153851 0.763685,-1.84333 0.454262,-1.509398 1.144625,-2.625704 1.491317,-2.411436 0.356531,0.22035 0.314121,0.818221 -0.08731,1.230688 -0.292061,0.300091 -0.982642,2.194384 -0.982642,2.69543 0,0.09226 0.727282,0.16774 1.616183,0.16774 1.61282,0 1.61582,-0.0015 1.44166,-0.69536 -0.096,-0.382449 -0.53294,-1.053778 -0.97101,-1.491843 -0.5695,-0.569502 -0.71518,-0.877779 -0.51121,-1.081757 0.20398,-0.203978 0.53933,-0.02389 1.17677,0.631947 1.40508,1.445642 3.5469,8.4578453 2.58337,8.4578453 -0.12127,0 -0.29986,-0.07937 -0.39687,-0.176389 z"
       id="path3386-4" /><path
       style="fill:#e3e535;stroke-width:0.264583;fill-opacity:1"
       d="M 34.899129,14.228757 C 34.317046,13.949685 33.43419,13.293916 32.937226,12.771493 32.18572,11.981485 32.013171,11.574606 31.911931,10.353784 31.805834,9.0743821 31.883171,8.7517911 32.514307,7.8410571 c 1.073066,-1.548434 2.683635,-2.234637 5.270132,-2.245405 1.442996,-0.006 2.126694,0.09385 2.204861,0.322022 0.08078,0.235789 -0.269049,0.330729 -1.218641,0.330729 -2.233046,0 -3.897523,0.48657 -4.989979,1.4587 -0.925244,0.823336 -0.998217,0.994347 -0.998217,2.3393029 0,1.179721 0.123678,1.585415 0.661458,2.169745 1.483228,1.611616 4.112233,2.097914 5.347958,0.989233 0.435512,-0.390738 1.275526,-0.315757 1.25831,0.112319 -0.02014,0.500898 -1.449441,1.183308 -2.714054,1.295809 -1.010828,0.08993 -1.661047,-0.01273 -2.437006,-0.384755 z"
       id="path3390" /><path
       style="fill:#e3e535;stroke-width:0.264583;fill-opacity:1"
       d="M 86.937499,14.648327 C 86.355416,14.369255 85.47256,13.713486 84.975596,13.191063 84.22409,12.401055 84.051541,11.994176 83.950301,10.773354 83.844204,9.4939522 83.921541,9.1713612 84.552677,8.2606272 c 1.073066,-1.548434 2.683635,-2.234637 5.270132,-2.245405 1.442996,-0.006 2.126694,0.09385 2.204861,0.322022 0.08078,0.235789 -0.269049,0.330729 -1.218641,0.330729 -2.233046,0 -3.897523,0.48657 -4.989979,1.4587 -0.925244,0.823336 -0.998217,0.994347 -0.998217,2.3393028 0,1.179721 0.123678,1.585415 0.661458,2.169745 1.483228,1.611616 4.112233,2.097914 5.347958,0.989233 0.435512,-0.390738 1.275526,-0.315757 1.25831,0.112319 -0.02014,0.500898 -1.449441,1.183308 -2.714054,1.295809 -1.010828,0.08993 -1.661047,-0.01273 -2.437006,-0.384755 z"
       id="path3390-3" /><path
       style="fill:#e3e535;stroke-width:0.264583;fill-opacity:1"
       d="m 21.360859,15.00295 c -0.321604,-0.225261 -0.584735,-0.61145 -0.584735,-0.858199 0,-0.810183 1.239424,-5.4741367 1.774542,-6.6776027 0.493673,-1.11026 0.621591,-1.205629 2.220448,-1.655454 1.921894,-0.54071 5.019899,-0.532189 5.200329,0.0143 0.0801,0.242597 -0.364416,0.330729 -1.668095,0.330729 -1.971973,0 -3.697841,0.402624 -4.448734,1.037835 -0.494526,0.418338 -0.818144,1.075704 -1.11829,2.27158 l -0.160691,0.6402427 2.716778,0.07569 c 1.882087,0.05244 2.750476,0.177303 2.82646,0.406421 0.08331,0.251201 -0.590947,0.330729 -2.804007,0.330729 h -2.913691 l -0.41565,1.429784 c -0.511349,1.758981 -0.513447,1.915656 -0.02814,2.101886 0.213132,0.08179 2.017552,0.03939 4.009824,-0.09421 3.54439,-0.237691 4.06933,-0.203728 4.06933,0.263286 0,0.259304 -1.549901,0.445091 -5.434535,0.65144 -2.136933,0.113512 -2.770759,0.06101 -3.241146,-0.268458 z"
       id="path3394" /><path
       style="fill:#e3e535;stroke-width:0.264583;fill-opacity:1"
       d="m 90.587909,28.971818 c -0.321604,-0.225261 -0.584735,-0.61145 -0.584735,-0.858199 0,-0.810183 1.239424,-5.474137 1.774542,-6.677603 0.493673,-1.11026 0.621591,-1.205629 2.220448,-1.655454 1.921894,-0.54071 5.019899,-0.532189 5.200329,0.0143 0.0801,0.242597 -0.364416,0.330729 -1.668095,0.330729 -1.971973,0 -3.697841,0.402624 -4.448734,1.037835 -0.494526,0.418338 -0.818144,1.075704 -1.11829,2.27158 l -0.160691,0.640243 2.716778,0.07569 c 1.882087,0.05244 2.750476,0.177303 2.82646,0.406421 0.08331,0.251201 -0.590947,0.330729 -2.804007,0.330729 h -2.913691 l -0.41565,1.429784 c -0.511349,1.758981 -0.513447,1.915656 -0.02814,2.101886 0.213132,0.08179 2.017552,0.03939 4.009824,-0.09421 3.54439,-0.237691 4.06933,-0.203728 4.06933,0.263286 0,0.259304 -1.549901,0.445091 -5.434535,0.65144 -2.136933,0.113512 -2.770759,0.06101 -3.241146,-0.268458 z"
       id="path3394-0" /><path
       style="fill:#e3e535;stroke-width:0.264583;fill-opacity:1"
       d="m 48.682264,29.052142 c -0.259613,-0.259614 0.07482,-8.710855 0.404548,-10.223094 0.21546,-0.988165 0.428545,-1.332252 0.947131,-1.529418 0.992129,-0.377207 6.739105,-0.189378 6.876571,0.224748 0.08327,0.250844 -0.582556,0.331602 -2.756536,0.334342 -1.576476,0.002 -3.132311,0.07491 -3.457411,0.162046 -0.642805,0.172295 -1.124628,1.430341 -1.127225,2.943195 l -0.0015,0.859896 1.653646,0.04115 c 0.909505,0.02263 1.912591,0.01953 2.22908,-0.0069 0.316488,-0.02643 0.659164,0.08743 0.761501,0.253016 0.322867,0.522409 -0.493516,0.781206 -1.927452,0.61101 -2.628224,-0.311948 -2.630071,-0.309787 -2.848927,3.332724 -0.178361,2.968538 -0.29966,3.451076 -0.753451,2.997285 z"
       id="path3398" /><path
       style="fill:#e3e535;stroke-width:0.264583;fill-opacity:1"
       d="m 52.395129,14.88985 c -0.40287,-1.066588 -0.91641,-9.7332435 -0.59574,-10.0539135 0.42941,-0.429403 0.51081,0.0069 0.82668,4.431518 0.15583,2.1828115 0.35374,4.4747645 0.4398,5.0932285 0.17132,1.231219 -0.27313,1.581851 -0.67074,0.529167 z m -8.260044,0.132291 c -0.01723,-0.10914 -0.0066,-0.3175 0.02363,-0.463021 0.03023,-0.14552 0.133628,-2.467239 0.229771,-5.1593735 0.197921,-5.542097 0.658955,-6.58623 0.778154,-1.762333 l 0.07418,3.0021455 1.436693,-0.247524 c 1.66756,-0.287299 4.669316,0.03865 4.830256,0.524503 0.081,0.244598 -0.47607,0.312924 -2.2276,0.273211 -3.966843,-0.08994 -4.308793,0.129823 -4.316394,2.774059 -0.0027,0.939135 -0.103919,1.256771 -0.400488,1.256771 -0.218281,0 -0.410974,-0.0893 -0.428207,-0.198438 z"
       id="path3392" /><path
       style="fill:#e3e535;stroke-width:0.264583;fill-opacity:1"
       d="m 79.304151,15.447139 c -0.257503,-0.432048 -0.30221,-8.4043714 -0.04785,-8.5328124 0.42223,-0.213209 0.599361,1.212576 0.632753,5.0932294 0.02771,3.219828 -0.137356,4.190492 -0.584903,3.439583 z M 79.131907,4.4071696 c -0.481445,-0.580106 0.402592,-1.627036 0.973672,-1.153082 0.47613,0.395152 0.336971,1.382015 -0.209552,1.486071 -0.231664,0.04411 -0.575518,-0.105737 -0.76412,-0.332989 z"
       id="path3400" /><path
       style="fill:#e3e535;stroke-width:0.290155;fill-opacity:1"
       d="m 107.1294,15.050601 c -0.5283,-0.765554 -0.5963,-2.038635 -0.32416,-6.0690563 0.2681,-3.9707181 0.67168,-5.8689721 1.20737,-5.6789713 0.29172,0.1034635 0.27676,0.4759451 -0.11133,2.771217 -0.30657,1.8132211 -0.52857,7.0197896 -0.33748,7.9150536 0.11322,0.530427 0.29139,0.570759 1.6092,0.364278 2.50578,-0.392618 3.99835,-0.112844 3.99454,0.748763 -0.002,0.40303 -5.75837,0.354137 -6.03814,-0.05128 z"
       id="path3388" /><path
       style="fill:#e3e535;stroke-width:0.290155;fill-opacity:1"
       d="m 58.546205,28.856287 c -0.5283,-0.765554 -0.5963,-2.038635 -0.32416,-6.069056 0.2681,-3.970719 0.67168,-5.868973 1.20737,-5.678972 0.29172,0.103464 0.27676,0.475945 -0.11133,2.771217 -0.30657,1.813222 -0.52857,7.01979 -0.33748,7.915054 0.11322,0.530427 0.29139,0.570759 1.6092,0.364278 2.50578,-0.392618 3.99835,-0.112844 3.99454,0.748763 -0.002,0.40303 -5.75837,0.354137 -6.03814,-0.05128 z"
       id="path3388-3" /><path
       style="fill:#e3e535;stroke-width:0.264583;fill-opacity:1"
       d="m 17.777372,15.143296 c -0.0865,-0.139956 -0.269374,-1.479409 -0.406393,-2.976562 -0.308964,-3.3759417 -0.751403,-6.0912327 -1.040008,-6.3826287 -0.235486,-0.237763 -2.041099,0.797061 -2.631028,1.507882 -0.595825,0.717925 -1.298883,0.502959 -2.045645,-0.625473 -0.385204,-0.582084 -0.778245,-1.058334 -0.873424,-1.058334 -0.198016,0 -2.4024624,4.5672257 -2.4024624,4.9774787 0,0.14855 -0.0893,0.309778 -0.198437,0.358285 -0.269386,0.119727 -1.309212,2.294393 -1.535013,3.210285 -0.122026,0.494964 -0.325692,0.711311 -0.613659,0.651867 -0.611106,-0.126151 -0.448835,-0.696006 1.148198,-4.03218 0.767947,-1.6042277 1.648029,-3.4525587 1.955739,-4.1074017 0.30771,-0.654844 0.849047,-1.547813 1.2029714,-1.984375 l 0.643499,-0.79375 0.268628,0.661458 c 0.147746,0.363802 0.549179,1.001627 0.892073,1.417389 l 0.623445,0.755931 1.207579,-0.814985 c 0.664169,-0.448242 1.358447,-0.99677 1.542841,-1.218952 0.929783,-1.120319 1.698743,0.186492 2.239966,3.806713 0.558686,3.7370297 0.762991,6.9018197 0.445551,6.9018197 -0.146934,0 -0.337923,-0.11451 -0.424421,-0.254467 z"
       id="path3402" /><path
       style="fill:#e3e535;stroke-width:0.264583;fill-opacity:1"
       d="m 67.638196,13.613496 c -0.720932,-0.720931 0.72918,-8.1579853 1.590683,-8.1579853 0.329086,0 2.730844,2.934285 2.730844,3.336337 0,0.524424 2.073533,3.4297993 2.247229,3.1487523 0.09137,-0.147847 0.267419,-0.834038 0.39121,-1.524868 0.12379,-0.6908303 0.348728,-1.9423883 0.499861,-2.7812393 0.314143,-1.743619 0.490524,-2.124484 0.874083,-1.887432 0.413348,0.255464 -0.181199,3.964216 -1.026512,6.4033243 -0.269894,0.778768 -0.526852,1.113157 -0.813042,1.058042 -0.475807,-0.09163 -2.950668,-3.5760563 -2.969643,-4.1810413 -0.01473,-0.469704 -1.556537,-2.23276 -1.767808,-2.02149 -0.377188,0.377189 -1.139544,3.8940643 -1.139544,5.2569093 0,1.412686 -0.174214,1.793839 -0.617361,1.350691 z"
       id="path3396" /><path
       style="fill:#e3e535;stroke-width:0.264583;fill-opacity:1"
       d="m 81.990616,25.667092 -1.013522,-1.282201 -1.036049,1.017618 c -0.569827,0.55969 -1.122616,1.017618 -1.22842,1.017618 -0.673059,0 -3.610021,-4.722575 -3.195039,-5.137557 0.363357,-0.363357 0.662453,-0.07169 1.266391,1.234953 0.353119,0.763985 0.914318,1.725883 1.247109,2.137551 l 0.605074,0.748489 0.656483,-0.622754 c 1.353267,-1.283741 1.388347,-1.394233 0.784171,-2.469918 -0.304991,-0.543011 -0.489097,-1.157808 -0.409124,-1.366215 0.201951,-0.526276 0.535397,-0.254906 1.069317,0.870247 l 0.455352,0.959583 1.154996,-1.133543 c 0.984837,-0.966544 1.18114,-1.065416 1.332448,-0.671114 0.126174,0.328805 -0.151406,0.797511 -0.960608,1.622028 l -1.138059,1.159598 0.741332,1.069743 c 0.407733,0.588358 0.933499,1.07024 1.16837,1.070848 0.23487,6.09e-4 1.356273,-0.969203 2.492005,-2.155135 1.557919,-1.62678 2.139789,-2.081421 2.369675,-1.851535 0.229886,0.229886 -0.01729,0.642774 -1.006635,1.681494 -2.474381,2.597872 -3.391502,3.382404 -3.954047,3.382404 -0.213234,0 -0.843783,-0.576991 -1.40122,-1.282202 z"
       id="path3406" /><path
       style="fill:#e3e535;stroke-width:0.264583;fill-opacity:1"
       d="m 67.77028,29.832422 c -0.09724,-0.157346 0.133853,-0.610345 0.513551,-1.006665 0.788882,-0.823415 0.874309,-1.620129 0.272242,-2.539 -0.254404,-0.38827 -0.387644,-1.060214 -0.340288,-1.716106 0.07182,-0.994638 0.0074,-1.113337 -0.83279,-1.535373 -0.599991,-0.301369 -0.98763,-0.730711 -1.136369,-1.258621 -0.129096,-0.458192 -0.55742,-0.991579 -1.00044,-1.245838 -2.024658,-1.161994 -1.493965,-4.110263 0.693879,-3.854844 0.719244,0.08397 0.934285,-0.01 1.160807,-0.507143 0.152915,-0.335611 0.579675,-0.747642 0.948356,-0.915624 0.588579,-0.268175 0.761532,-0.218045 1.418172,0.411056 0.658216,0.630612 0.788087,0.667989 1.083634,0.311877 0.803354,-0.967983 3.185658,0.625831 3.185658,2.131277 0,0.46997 -0.136136,0.89987 -0.302524,0.955333 -0.226977,0.07566 -0.226977,0.242003 0,0.666113 0.397759,0.743219 0.38816,2.78984 -0.01497,3.192976 -0.423479,0.423478 -1.580899,0.403146 -2.18472,-0.03838 -0.431545,-0.315553 -0.587177,-0.249346 -1.373487,0.58429 -0.961528,1.019401 -1.105811,1.762131 -0.498333,2.565289 0.213653,0.282475 0.392247,0.997331 0.396875,1.588569 0.0066,0.838865 -0.154579,1.231136 -0.733667,1.785937 -0.820732,0.786312 -0.995625,0.845494 -1.255581,0.424876 z m 1.949919,-7.849853 c 0.06933,-0.48815 -0.04097,-0.595313 -0.612707,-0.595313 -0.38349,0 -0.930013,-0.124568 -1.214495,-0.276818 -0.661896,-0.354236 -1.023068,-0.129778 -0.850851,0.52878 0.280376,1.072161 2.533518,1.361035 2.678053,0.343351 z m 3.178526,-0.294198 c 0.141223,-0.993373 -0.158903,-1.735147 -0.824934,-2.038856 -0.574908,-0.262157 -0.643692,-0.205315 -0.95376,0.788181 -0.311391,0.997733 -0.293789,1.10341 0.25824,1.550416 0.760733,0.616004 1.408419,0.48832 1.520454,-0.299741 z m -2.752807,-1.510638 c 0.566313,-0.566313 0.526053,-0.774026 -0.24838,-1.281454 -0.781872,-0.512302 -1.574912,-0.225902 -1.859782,0.671646 -0.310409,0.978012 1.279935,1.438035 2.108162,0.609808 z m -3.020196,-0.311831 c 0.002,-0.10914 0.07253,-0.45532 0.156754,-0.769288 0.167438,-0.624149 -0.6692,-1.678107 -1.332093,-1.678107 -1.124677,0 -1.440452,1.552857 -0.470779,2.315104 0.456723,0.359024 1.640258,0.45414 1.646118,0.132291 z m 5.084691,-1.389062 c 0.697039,0 0.8752,-0.726725 0.326736,-1.332771 -0.644334,-0.711981 -1.546175,-0.659974 -1.959871,0.113023 -0.291207,0.544126 -0.269762,0.704679 0.153729,1.150938 0.282641,0.297836 0.599143,0.422865 0.743498,0.293706 0.138244,-0.123693 0.469403,-0.224896 0.735908,-0.224896 z m -3.390152,-0.689766 c 0.511427,-0.196253 0.550788,-1.252329 0.0618,-1.658153 -0.511391,-0.424417 -1.339968,0.528772 -1.104512,1.270625 0.183974,0.579652 0.365872,0.647256 1.042712,0.387528 z"
       id="path3408" /><path
       style="fill:#e3e535;stroke-width:0.311651;fill-opacity:1"
       d="m 103.45353,29.175226 c -0.10464,-0.234902 -0.24555,-2.020446 -0.31314,-3.967876 -0.17614,-5.075042 0.51436,-6.617819 2.96191,-6.617819 1.06723,0 1.74358,0.954971 1.74358,2.461834 0,1.246179 -0.35979,1.810514 -1.275,1.999881 l -0.61354,0.126951 0.61354,0.897612 c 0.8751,1.280274 2.59791,4.502288 2.59791,4.858628 0,0.645535 -0.75485,0.254288 -1.15851,-0.600468 -0.2341,-0.495695 -0.63856,-1.19776 -0.8988,-1.560146 -1.12994,-1.573424 -2.46023,-4.172311 -2.30921,-4.511333 0.0904,-0.203015 0.64155,-0.369118 1.22471,-0.369118 1.00059,0 1.05558,-0.05684 0.97658,-1.009505 -0.0686,-0.827664 -0.23037,-1.029374 -0.89782,-1.119799 -0.51255,-0.06944 -1.05158,0.157724 -1.45521,0.613275 -0.61543,0.694582 -0.63981,0.893859 -0.60859,4.974275 0.0302,3.95032 -0.11413,4.888333 -0.58841,3.823612 z"
       id="path3404" /></g></svg>
