<?xml version="1.0" encoding="UTF-8" standalone="no"?>
<!-- Created with Inkscape (http://www.inkscape.org/) -->

<svg
   width="407.08206"
   height="104.8744"
   viewBox="0 0 107.70713 27.748018"
   version="1.1"
   id="svg5"
   xml:space="preserve"
   inkscape:version="1.1 (c68e22c387, 2021-05-23)"
   sodipodi:docname="mechanical_flower2_yellow.svg"
   xmlns:inkscape="http://www.inkscape.org/namespaces/inkscape"
   xmlns:sodipodi="http://sodipodi.sourceforge.net/DTD/sodipodi-0.dtd"
   xmlns="http://www.w3.org/2000/svg"
   xmlns:svg="http://www.w3.org/2000/svg"><sodipodi:namedview
     id="namedview7"
     pagecolor="#ffffff"
     bordercolor="#111111"
     borderopacity="1"
     inkscape:showpageshadow="0"
     inkscape:pageopacity="0"
     inkscape:pagecheckerboard="1"
     inkscape:deskcolor="#d1d1d1"
     inkscape:document-units="mm"
     showgrid="false"
     inkscape:zoom="2.1417558"
     inkscape:cx="228.5508"
     inkscape:cy="138.43782"
     inkscape:window-width="1920"
     inkscape:window-height="1017"
     inkscape:window-x="1912"
     inkscape:window-y="-8"
     inkscape:window-maximized="1"
     inkscape:current-layer="layer1"
     inkscape:pageshadow="2" /><defs
     id="defs2" /><g
     inkscape:label="Calque 1"
     inkscape:groupmode="layer"
     id="layer1"
     transform="translate(-5.3667321,-2.5903561)"><path
       style="fill:#e3e535;stroke-width:0.264583;fill-opacity:1"
       id="path989"
       d="" /><path
       style="fill:#e3e535;stroke-width:0.264583;fill-opacity:1"
       id="path987"
       d="" /><path
       style="fill:#e3e535;stroke-width:0.264583;fill-opacity:1"
       d="m 68.360162,13.699757 c -0.247094,-0.643916 0.0088,-8.1239646 0.280272,-8.1911309 0.145521,-0.03601 0.302846,0.3342521 0.34961,0.8228054 l 0.08503,0.8882792 0.668754,-0.6236959 0.668753,-0.6236956 1.037038,1.1640054 c 0.57037,0.640203 1.113852,1.4736405 1.207737,1.8520832 0.09389,0.3784428 0.491403,1.2052132 0.883372,1.8372692 0.854898,1.378536 0.970213,1.212541 1.327971,-1.9116152 0.237106,-2.0705444 0.88259,-3.6096411 1.327332,-3.1648993 0.130661,0.130661 0.0678,0.686599 -0.14531,1.2850552 -0.206579,0.5801225 -0.381488,1.531018 -0.388687,2.1131013 -0.0072,0.5820832 -0.119932,1.475051 -0.250519,1.984374 -0.130586,0.509323 -0.310784,1.253464 -0.40044,1.653646 -0.08966,0.400182 -0.282206,0.727604 -0.42789,0.727604 -0.396232,0 -2.635455,-3.5800286 -2.635455,-4.2135167 0,-0.3019403 -0.0893,-0.5497351 -0.198438,-0.5506553 C 71.640148,8.7478511 71.33835,8.3737996 71.078628,7.9175455 L 70.606405,7.0879929 69.954149,7.7007557 69.301893,8.3135185 v 2.8642955 c 0,2.395741 -0.06628,2.864296 -0.405179,2.864296 -0.222848,0 -0.464297,-0.154059 -0.536552,-0.342353 z"
       id="path1033" /><path
       style="fill:#e3e535;stroke-width:0.264583;fill-opacity:1"
       d="m 64.031687,14.67411 c -0.25139,-0.886987 -0.6834,-3.208685 -0.6834,-3.672722 0,-1.3993022 -1.992,-4.4685462 -2.89378,-4.4586992 -0.35827,0.0039 -1.04456,1.269649 -1.76455,3.254369 l -0.1744,0.4807602 2.21792,-0.05885 c 1.88245,-0.04995 2.23087,0.0074 2.30348,0.379136 l 0.0855,0.437987 h -2.51356 -2.51356 l -0.45076,0.859895 c -0.24791,0.472943 -0.52633,1.275333 -0.61871,1.78309 -0.10793,0.593205 -0.33783,0.955905 -0.64318,1.01471 l -0.47521,0.09152 0.1872,-0.997818 c 0.10295,-0.5488 0.5865,-1.80579 1.07454,-2.793311 0.48805,-0.98752 0.88736,-1.8656982 0.88736,-1.9515052 0,-0.231215 1.36184,-3.116351 1.63978,-3.473965 0.25497,-0.328063 0.68005,-0.169096 2.09754,0.784426 0.89034,0.598916 2.06417,2.851847 2.37101,4.5506692 0.50432,2.792169 0.59061,4.101041 0.27038,4.101041 -0.17045,0 -0.35208,-0.148828 -0.40364,-0.330729 z"
       id="path1289" /><path
       style="fill:#e3e535;stroke-width:0.264583;fill-opacity:1"
       d="m 103.40674,14.632222 c -0.25139,-0.886987 -0.6834,-3.208685 -0.6834,-3.672722 0,-1.3993017 -1.992,-4.4685457 -2.893784,-4.4586987 -0.35827,0.0039 -1.04456,1.269649 -1.76455,3.254369 l -0.1744,0.4807597 2.217924,-0.05885 c 1.88245,-0.04995 2.23087,0.0074 2.30348,0.379136 l 0.0855,0.437987 h -2.513564 -2.51356 l -0.45076,0.859895 c -0.24791,0.472943 -0.52633,1.275333 -0.61871,1.78309 -0.10793,0.593205 -0.33783,0.955905 -0.64318,1.01471 l -0.47521,0.09152 0.1872,-0.997818 c 0.10295,-0.5488 0.5865,-1.80579 1.07454,-2.793311 0.48805,-0.9875195 0.88736,-1.8656977 0.88736,-1.9515047 0,-0.231215 1.36184,-3.116351 1.63978,-3.473965 0.25497,-0.328063 0.68005,-0.169096 2.097544,0.784426 0.89034,0.598916 2.06417,2.851847 2.37101,4.5506687 0.50432,2.792169 0.59061,4.101041 0.27038,4.101041 -0.17045,0 -0.35208,-0.148828 -0.40364,-0.330729 z"
       id="path1289-1" /><path
       style="fill:#e3e535;stroke-width:0.264583;fill-opacity:1"
       d="m 35.002312,14.454069 c -0.46298,-0.202763 -1.32618,-0.829459 -1.91823,-1.392658 l -1.07644,-1.023998 v -1.636965 c 0,-0.9003308 0.16086,-2.0219538 0.35746,-2.4924958 0.43113,-1.031832 1.95832,-2.422049 3.25657,-2.964496 1.13705,-0.475087 3.56198,-0.522793 4.00597,-0.07881 0.57393,0.573938 0.33445,0.733034 -0.85749,0.56966 -1.60049,-0.219371 -3.43626,0.367692 -4.55876,1.45785 -1.12605,1.093612 -1.41,1.802317 -1.41,3.5191858 v 1.33183 l 0.83749,0.78234 c 2.12841,1.988227 4.84619,2.069959 6.59456,0.19832 0.72692,-0.778163 1.2992,-0.838687 1.2992,-0.137401 0,0.493464 -1.05838,1.402185 -2.17793,1.869961 -1.19206,0.498073 -3.21228,0.496994 -4.3524,-0.0023 z"
       id="path1293" /><path
       style="fill:#e3e535;stroke-width:0.264583;fill-opacity:1"
       d="m 87.122707,14.710689 c -0.46298,-0.202763 -1.32618,-0.829459 -1.91823,-1.392658 l -1.07644,-1.023998 v -1.636965 c 0,-0.9003306 0.16086,-2.0219536 0.35746,-2.4924956 0.43113,-1.031832 1.95832,-2.4220485 3.25657,-2.9644955 1.13705,-0.475087 3.56198,-0.522793 4.00597,-0.07881 0.57393,0.573938 0.33445,0.733034 -0.85749,0.56966 -1.60049,-0.219371 -3.43626,0.367692 -4.55876,1.4578495 -1.12605,1.093612 -1.41,1.802317 -1.41,3.5191856 v 1.33183 l 0.83749,0.78234 c 2.12841,1.988227 4.84619,2.069959 6.59456,0.19832 0.72692,-0.778163 1.2992,-0.838687 1.2992,-0.137401 0,0.493464 -1.05838,1.402185 -2.17793,1.869961 -1.19206,0.498073 -3.21228,0.496994 -4.3524,-0.0023 z"
       id="path1293-6" /><path
       style="fill:#e3e535;stroke-width:0.282635;fill-opacity:1"
       d="m 21.426653,14.933896 -0.613188,-0.490102 0.182014,-1.385033 c 0.100107,-0.761768 0.390384,-2.069692 0.645059,-2.906496 0.254675,-0.8368043 0.615049,-2.0649183 0.800832,-2.7291428 0.492398,-1.7604554 1.205588,-2.4933693 2.791958,-2.8691713 1.798895,-0.4261481 5.207326,-0.2814194 5.354758,0.2273727 0.08129,0.2805339 -0.456555,0.3833551 -2.095502,0.4006031 -3.667865,0.038604 -4.996588,0.842834 -5.487285,3.321282 l -0.204589,1.033352 h 2.779177 c 2.086194,0 2.808772,0.100794 2.897868,0.40422 0.09569,0.3258933 -0.469351,0.3843963 -2.916068,0.3019193 l -3.034761,-0.102301 -0.284299,1.207679 c -0.636117,2.702178 -0.635807,2.843117 0.0066,3.013839 0.329376,0.08752 2.0179,0.192472 3.752276,0.233209 2.239745,0.05261 3.185219,0.183419 3.263194,0.451471 0.183025,0.629182 -7.039825,0.525327 -7.838092,-0.112708 z"
       id="path1297" /><path
       style="fill:#e3e535;stroke-width:0.282635;fill-opacity:1"
       d="m 90.861497,28.872648 -0.613188,-0.490102 0.182014,-1.385033 c 0.100107,-0.761768 0.390384,-2.069692 0.645059,-2.906496 0.254675,-0.836804 0.615049,-2.064918 0.800832,-2.729143 0.492398,-1.760455 1.205588,-2.493369 2.791958,-2.869171 1.798895,-0.426148 5.207326,-0.28142 5.354758,0.227373 0.0813,0.280533 -0.456555,0.383355 -2.095502,0.400603 -3.667865,0.0386 -4.996588,0.842834 -5.487285,3.321282 l -0.204589,1.033352 h 2.779177 c 2.086194,0 2.808772,0.100794 2.897868,0.40422 0.09569,0.325893 -0.469351,0.384396 -2.916068,0.301919 L 91.96177,24.079151 91.677471,25.28683 c -0.636117,2.702178 -0.635807,2.843117 0.0066,3.013839 0.329376,0.08752 2.0179,0.192472 3.752276,0.233209 2.239745,0.05261 3.185219,0.183419 3.263194,0.451471 0.183025,0.629182 -7.039825,0.525327 -7.838092,-0.112708 z"
       id="path1297-4" /><path
       style="fill:#e3e535;stroke-width:0.264583;fill-opacity:1"
       d="m 48.443236,29.015542 c -0.08148,-0.212329 -0.107507,-2.682876 -0.05784,-5.490103 l 0.0903,-5.104051 2.863773,-0.214648 c 2.225992,-0.166844 2.957428,-0.137382 3.284299,0.132292 0.361246,0.298034 0.218635,0.371223 -1.011691,0.51921 -0.787718,0.09475 -2.04111,0.184046 -2.785314,0.198438 l -1.353099,0.02617 -0.168255,1.227553 c -0.09254,0.675155 -0.168468,1.359764 -0.168728,1.521354 -2.91e-4,0.186001 0.646448,0.293801 1.762649,0.293801 1.17465,0 1.80033,0.110387 1.874604,0.33073 0.08047,0.238735 -0.304679,0.330729 -1.384672,0.330729 -2.142997,0 -2.252108,0.178546 -2.252108,3.685267 0,1.835914 -0.101859,2.929316 -0.272887,2.929316 -0.150088,0 -0.339552,-0.173725 -0.42103,-0.386054 z"
       id="path1301" /><path
       style="fill:#e3e535;stroke-width:0.264583;fill-opacity:1"
       d="m 51.921777,15.624474 c -0.01116,-0.03638 -0.08203,-1.613958 -0.157494,-3.505729 -0.07546,-1.89177 -0.175261,-3.4790583 -0.221775,-3.5273063 -0.04651,-0.04825 -1.58488,-0.0023 -3.418591,0.102217 l -3.334021,0.18994 0.03812,3.0168253 c 0.03745,2.96402 -0.07255,3.602282 -0.536206,3.111102 C 43.954956,14.65467 43.807378,4.2136947 44.136859,4.0489537 c 0.155912,-0.07796 0.362867,0.709914 0.503874,1.918229 l 0.239291,2.050521 h 0.976833 c 0.537259,0 2.066687,-0.07736 3.39873,-0.171911 l 2.421896,-0.171911 v -1.929141 c 0,-1.748194 0.353905,-2.788105 0.650353,-1.910994 0.0646,0.191125 0.172807,2.937108 0.240467,6.102186 0.103569,4.8449203 0.06379,5.7546873 -0.251609,5.7546873 -0.206045,0 -0.383757,-0.02976 -0.394916,-0.06615 z"
       id="path1309" /><path
       style="fill:#e3e535;stroke-width:0.264583;fill-opacity:1"
       d="m 79.405432,14.807149 c -0.533214,-0.862759 0.222838,-6.980013 0.952917,-7.710092 0.498683,-0.498683 0.586589,0.590096 0.16479,2.041034 -0.238752,0.821279 -0.419758,2.424666 -0.419758,3.718301 0,2.119781 -0.217602,2.727974 -0.697949,1.950757 z M 79.727742,4.463397 C 78.94363,3.89004 79.369284,3.171328 80.432291,3.273772 c 0.720628,0.06945 0.861715,0.191344 0.861715,0.744503 0,0.785861 -0.79233,1.011036 -1.566264,0.445122 z"
       id="path1303" /><path
       style="fill:#e3e535;stroke-width:0.289233;fill-opacity:1"
       d="m 107.27518,14.456526 -0.61293,-0.787551 0.10973,-3.277104 c 0.11797,-3.5229378 0.68616,-7.0114821 1.11614,-6.8527603 0.31652,0.1168365 0.22084,2.7819027 -0.14068,3.9182031 -0.14091,0.4428889 -0.2562,1.9879608 -0.2562,3.4334912 0,3.413398 0.12304,3.547615 2.85556,3.114957 1.97714,-0.313054 2.83297,-0.119239 2.29059,0.518722 -0.13825,0.162607 -1.26339,0.391037 -2.50032,0.507621 l -2.24895,0.211972 z"
       id="path1307" /><path
       style="fill:#e3e535;stroke-width:0.289233;fill-opacity:1"
       d="m 58.140005,28.355407 -0.61293,-0.787551 0.10973,-3.277104 c 0.11797,-3.522937 0.68616,-7.011482 1.11614,-6.85276 0.31652,0.116837 0.22084,2.781903 -0.14068,3.918203 -0.14091,0.442889 -0.2562,1.987961 -0.2562,3.433491 0,3.413399 0.12304,3.547616 2.85556,3.114958 1.97714,-0.313055 2.83297,-0.11924 2.29059,0.518722 -0.13825,0.162606 -1.26339,0.391037 -2.50032,0.507621 l -2.24895,0.211972 z"
       id="path1307-9" /><path
       style="fill:#e3e535;stroke-width:0.264583;fill-opacity:1"
       d="m 17.405968,15.578762 c -0.09701,-0.09701 -0.177005,-1.376935 -0.177758,-2.84427 -7.53e-4,-1.467335 -0.07657,-3.8032678 -0.168479,-5.1909608 l -0.167109,-2.523078 -1.547654,0.737141 c -0.851209,0.405428 -1.684069,0.737141 -1.850801,0.737141 -0.166731,0 -0.695127,-0.41562 -1.174214,-0.9236 l -0.871067,-0.9236 -0.594781,0.989746 c -0.327129,0.54436 -1.0860177,1.585058 -1.6864187,2.312662 -0.813351,0.985671 -1.315233,2.014272 -1.968732,4.0348958 -0.842344,2.604535 -1.110724,3.042873 -1.488653,2.431372 -0.343933,-0.556495 1.534999,-5.3586278 2.695644,-6.8894708 0.617795,-0.814845 1.433321,-2.065001 1.8122797,-2.778125 0.919947,-1.731152 1.04434,-1.822378 1.515929,-1.111736 0.222238,0.334894 0.707755,0.933355 1.078925,1.329914 l 0.674854,0.721016 1.275511,-0.555182 c 0.70153,-0.305349 1.486682,-0.740103 1.744782,-0.966118 0.367875,-0.322143 0.538644,-0.341565 0.790325,-0.08989 0.400747,0.400748 0.676301,3.600867 0.703739,8.1727978 0.01922,3.203303 -0.09342,3.832237 -0.596322,3.32934 z"
       id="path1311" /><path
       style="fill:#e3e535;stroke-width:0.308241;fill-opacity:1"
       d="m 103.66587,29.122558 c -0.63618,-1.655279 -0.56041,-11.122094 0.0906,-11.320754 0.14552,-0.04441 0.29855,0.242454 0.34006,0.637466 l 0.0755,0.718204 1.4341,-0.122084 1.4341,-0.122083 0.68898,0.935117 c 0.54217,0.735852 0.67154,1.220994 0.60709,2.276696 l -0.0819,1.34158 -0.87273,0.113831 -0.87272,0.113832 0.87272,0.783929 c 0.51077,0.458795 1.17098,1.603082 1.59184,2.75899 0.84278,2.314701 0.86889,2.513715 0.32982,2.513715 -0.22484,0 -0.62478,-0.68158 -0.89554,-1.526184 -0.54474,-1.699256 -0.95274,-2.305441 -2.6181,-3.889888 -1.47685,-1.405095 -1.33843,-1.982314 0.43709,-1.822737 l 1.36616,0.122789 v -0.725564 c 0,-1.906234 -2.26961,-2.608197 -3.07032,-0.949612 -0.3712,0.768903 -0.40845,1.495942 -0.24838,4.847879 0.12773,2.67493 0.099,3.94332 -0.0893,3.94332 -0.15267,0 -0.38627,-0.282793 -0.51911,-0.628429 z"
       id="path1299" /><path
       style="fill:#e3e535;stroke-width:0.264583;fill-opacity:1"
       d="m 77.463724,25.400569 c -0.667179,-0.887544 -1.213052,-1.773486 -1.213052,-1.96876 0,-0.804278 0.520041,-0.580628 1.150201,0.494659 1.098417,1.874307 1.283418,1.921454 2.236103,0.569868 l 0.833558,-1.182573 -0.654724,-0.964786 c -0.717539,-1.057352 -0.782757,-1.309749 -0.399617,-1.546542 0.140308,-0.08672 0.557699,0.321677 0.927541,0.907538 l 0.67243,1.065201 1.21163,-0.92486 c 1.16155,-0.886628 1.70394,-0.986364 1.68868,-0.310518 -0.004,0.173313 -0.48017,0.60694 -1.05834,0.963615 -0.57817,0.356676 -1.05121,0.787104 -1.05121,0.956507 0,0.326415 0.98485,1.704824 1.44608,2.023952 0.15054,0.104158 0.86902,-0.374265 1.59663,-1.063162 2.82922,-2.678711 3.02448,-2.822151 3.37056,-2.476067 0.2561,0.256101 0.0469,0.556153 -0.99393,1.425695 -0.72507,0.60573 -1.81881,1.624498 -2.43053,2.263928 l -1.11223,1.162601 -0.60756,-0.422855 c -0.33416,-0.23257 -0.92229,-0.842682 -1.30696,-1.355804 l -0.6994,-0.932949 -0.44126,0.441256 c -0.24269,0.242691 -0.625498,0.901722 -0.850682,1.464514 -0.225185,0.562792 -0.565001,1.023258 -0.755147,1.023258 -0.190145,0 -0.891593,-0.726172 -1.558771,-1.613716 z"
       id="path1295" /><path
       style="fill:#e3e535;stroke-width:0.264583;fill-opacity:1"
       d="m 69.419414,30.380615 c -0.0881,-0.142514 -0.036,-0.491114 0.11577,-0.774668 0.22575,-0.421825 0.10249,-0.742747 -0.678,-1.765254 l -0.95392,-1.249702 0.17164,-1.293899 c 0.14175,-1.068547 0.0776,-1.413404 -0.36809,-1.980062 -0.29686,-0.377389 -0.53974,-0.967762 -0.53974,-1.311939 0,-0.497525 -0.14099,-0.625777 -0.68792,-0.625777 -0.42956,0 -1.02577,-0.337853 -1.5875,-0.899584 -0.76099,-0.760993 -0.89958,-1.086147 -0.89958,-2.110567 0,-0.992107 0.11679,-1.287506 0.64616,-1.634364 0.35539,-0.23286 0.91281,-0.384433 1.23871,-0.336829 0.37554,0.05485 0.85819,-0.179921 1.31786,-0.641052 0.82732,-0.829927 2.57616,-1.01887 3.14019,-0.33926 0.23468,0.282768 0.63337,0.345705 1.46655,0.231505 l 1.14426,-0.156838 0.68251,0.68251 c 0.46522,0.46522 0.68251,0.968105 0.68251,1.57957 0,0.889735 -0.63979,1.772826 -1.2844,1.772826 -0.22259,0 -0.19034,0.244327 0.10851,0.822246 0.84539,1.634803 -0.20285,2.753997 -1.99444,2.129444 l -0.79842,-0.27833 v 1.04457 1.044569 h -0.6382 c -0.53562,0 -0.66622,0.165811 -0.81248,1.031513 l -0.17427,1.031513 0.94477,1.237711 c 1.00248,1.313324 1.10946,1.717974 0.67087,2.53749 -0.29878,0.558277 -0.66232,0.658841 -0.91335,0.252658 z m 0.12891,-8.207551 v -1.322917 h -0.79375 -0.79375 v 0.710552 c 0,0.670873 0.89445,1.935281 1.36904,1.935281 0.12015,0 0.21846,-0.595312 0.21846,-1.322916 z m 2.91042,-0.926042 c 0,-0.803184 -1.09112,-2.034598 -1.27476,-1.438672 -0.0645,0.209187 -0.28327,0.571627 -0.48624,0.805423 -0.29733,0.342508 -0.30348,0.47695 -0.0316,0.692078 0.96952,0.767198 1.79262,0.740187 1.79262,-0.05883 z m -5.08092,-1.724636 c 0.0626,-0.74305 -0.0787,-1.08151 -0.70068,-1.677359 -0.65989,-0.63221 -0.86428,-0.700919 -1.33524,-0.448868 -1.25283,0.670496 -0.087,3.347686 1.36779,3.140922 0.46349,-0.06587 0.60646,-0.283001 0.66813,-1.014695 z m 2.91617,-0.191034 c 0.11087,-0.780361 -1.04394,-1.383458 -1.66388,-0.868957 -0.42407,0.35195 -0.53812,1.107815 -0.21578,1.430153 0.10391,0.10391 0.5504,0.15352 0.99219,0.110243 0.60057,-0.05883 0.82451,-0.228256 0.88747,-0.671439 z m 2.95564,-0.99131 c 0.43239,-0.520993 0.1322,-1.646517 -0.49198,-1.844623 -0.52348,-0.166145 -1.73673,0.194309 -1.98024,0.588325 -0.24905,0.402962 0.12701,1.351201 0.584,1.472582 0.90545,0.240496 1.57255,0.164084 1.88822,-0.216284 z m -3.96589,-1.060544 c 0.23586,-7.28e-4 0.43084,-0.296404 0.48059,-0.72883 0.0703,-0.610613 -0.016,-0.727604 -0.53644,-0.727604 -0.81858,0 -1.79624,0.704204 -1.79624,1.293822 0,0.697526 0.26756,0.842275 0.89469,0.484032 0.30829,-0.176107 0.73911,-0.320746 0.9574,-0.32142 z"
       id="path1291" /></g></svg>
