<?xml version="1.0" encoding="UTF-8" standalone="no"?>
<!-- Created with Inkscape (http://www.inkscape.org/) -->

<svg
   width="407.08206"
   height="104.8744"
   viewBox="0 0 107.70713 27.748018"
   version="1.1"
   id="svg5"
   xml:space="preserve"
   inkscape:version="1.1 (c68e22c387, 2021-05-23)"
   sodipodi:docname="mechanical_flower_yellow.svg"
   xmlns:inkscape="http://www.inkscape.org/namespaces/inkscape"
   xmlns:sodipodi="http://sodipodi.sourceforge.net/DTD/sodipodi-0.dtd"
   xmlns="http://www.w3.org/2000/svg"
   xmlns:svg="http://www.w3.org/2000/svg"><sodipodi:namedview
     id="namedview7"
     pagecolor="#ffffff"
     bordercolor="#111111"
     borderopacity="1"
     inkscape:showpageshadow="0"
     inkscape:pageopacity="0"
     inkscape:pagecheckerboard="1"
     inkscape:deskcolor="#d1d1d1"
     inkscape:document-units="mm"
     showgrid="false"
     inkscape:zoom="2.1417558"
     inkscape:cx="228.08389"
     inkscape:cy="100.61838"
     inkscape:window-width="1920"
     inkscape:window-height="1017"
     inkscape:window-x="1912"
     inkscape:window-y="-8"
     inkscape:window-maximized="1"
     inkscape:current-layer="layer1"
     inkscape:pageshadow="2" /><defs
     id="defs2" /><g
     inkscape:label="Calque 1"
     inkscape:groupmode="layer"
     id="layer1"
     transform="translate(-5.3667321,-2.5903561)"><path
       style="fill:#e3e535;stroke-width:0.264583;fill-opacity:1"
       d="m 57.446251,14.499448 c -0.0844,-0.219942 0.02716,-0.964083 0.247915,-1.653645 0.220754,-0.689563 0.721295,-2.622969 1.112315,-4.2964587 0.918818,-3.9323575 1.136198,-4.4903603 1.545073,-3.9661062 0.169107,0.2168274 0.433799,0.3942315 0.588204,0.3942315 0.514923,0 1.91081,1.8471191 2.202731,2.9147839 0.158497,0.5796812 0.508436,1.4120214 0.777642,1.8496446 0.611327,0.9937789 1.741448,4.3441249 1.53498,4.5505919 -0.330752,0.330753 -0.89647,-0.519584 -1.356506,-2.038979 -0.265415,-0.876606 -0.612119,-1.699059 -0.770453,-1.827674 -0.158334,-0.128614 -1.148069,-0.170939 -2.199411,-0.09405 -1.460229,0.106786 -1.937814,0.240826 -2.022854,0.567739 -1.028937,3.955457 -1.298681,4.54056 -1.659636,3.599927 z M 62.557299,9.2528034 C 62.82926,8.9808419 62.022134,7.0396441 61.301966,6.2336358 60.391974,5.2151779 60.263069,5.1825429 60.259283,5.9696571 c -0.0016,0.3274218 -0.180169,1.179782 -0.396875,1.8941336 -0.216706,0.7143517 -0.394011,1.4156181 -0.394011,1.5583701 0,0.2509509 2.823393,0.096151 3.088902,-0.1693574 z"
       id="path1037" /><path
       style="fill:#e3e535;stroke-width:0.264583;fill-opacity:1"
       d="m 95.669663,14.328583 c -0.0844,-0.219943 0.0272,-0.964083 0.24791,-1.653645 0.22076,-0.689563 0.7213,-2.622969 1.11232,-4.2964577 0.918825,-3.9323576 1.136205,-4.4903603 1.545075,-3.9661062 0.16911,0.2168273 0.433804,0.3942315 0.588204,0.3942315 0.51493,0 1.910808,1.8471191 2.202738,2.9147839 0.15849,0.5796812 0.50843,1.4120214 0.77764,1.8496445 0.61132,0.993778 1.74144,4.344124 1.53498,4.550591 -0.33076,0.330753 -0.89647,-0.519584 -1.35651,-2.038979 -0.26541,-0.876606 -0.61212,-1.699059 -0.77045,-1.827673 -0.15834,-0.128615 -1.14807,-0.17094 -2.199408,-0.09406 -1.460234,0.106786 -1.937824,0.240826 -2.022864,0.567738 -1.028935,3.955457 -1.298685,4.54056 -1.659635,3.599927 z M 100.78071,9.0819394 C 101.05268,8.8099779 100.24555,6.8687801 99.525382,6.0627718 98.615388,5.0443139 98.486488,5.0116788 98.482698,5.798793 c -0.002,0.3274219 -0.18017,1.179782 -0.39688,1.8941337 -0.2167,0.7143517 -0.39401,1.4156181 -0.39401,1.55837 0,0.250951 2.823402,0.096151 3.088902,-0.1693573 z"
       id="path1031" /><path
       style="fill:#e3e535;stroke-width:0.264583;fill-opacity:1"
       d="m 25.350987,15.024636 c -1.807628,-0.05069 -3.17762,-0.210202 -3.401564,-0.396059 -0.261644,-0.217145 -0.330653,-0.634174 -0.228346,-1.379929 0.882551,-6.4333042 1.304224,-7.9668471 2.337543,-8.5011968 0.95235,-0.4924795 4.745332,-0.422817 4.915097,0.090272 0.08061,0.2436157 -0.380935,0.3307291 -1.752254,0.3307291 -2.547094,0 -3.06594,0.2842138 -3.557153,1.9485402 -0.220564,0.7473132 -0.457012,1.6169356 -0.525441,1.9324943 L 23.014454,9.6232296 23.97623,9.4463618 c 1.821297,-0.3349315 4.119528,-0.2146776 4.204663,0.2200068 0.0624,0.3185853 -0.249792,0.3975704 -1.582578,0.4003994 -0.91317,0.0019 -2.08317,0.0922 -2.600001,0.200578 l -0.939692,0.197054 -0.317078,1.53514 c -0.174393,0.844326 -0.317078,1.6768 -0.317078,1.849942 0,0.222879 0.830533,0.319255 2.84427,0.33005 3.276742,0.01757 4.870881,0.243751 5.027402,0.713313 0.07701,0.231031 -0.193762,0.312838 -0.904312,0.273216 -0.55783,-0.03111 -2.376207,-0.09475 -4.040839,-0.141425 z"
       id="path1009" /><path
       style="fill:#e3e535;stroke-width:0.264583;fill-opacity:1"
       d="m 95.159031,29.164684 c -1.807628,-0.05069 -3.17762,-0.210202 -3.401564,-0.396059 -0.261644,-0.217145 -0.330653,-0.634175 -0.228346,-1.379929 0.882551,-6.433305 1.304224,-7.966848 2.337543,-8.501198 0.95235,-0.492479 4.745334,-0.422816 4.915094,0.09027 0.0806,0.243616 -0.38093,0.330729 -1.752251,0.330729 -2.547094,0 -3.06594,0.284214 -3.557153,1.94854 -0.220564,0.747314 -0.457012,1.616936 -0.525441,1.932495 l -0.124415,0.573742 0.961776,-0.176867 c 1.821297,-0.334932 4.119524,-0.214678 4.204664,0.220006 0.0624,0.318586 -0.249791,0.397571 -1.582579,0.4004 -0.91317,0.0019 -2.08317,0.0922 -2.600001,0.200578 l -0.939692,0.197056 -0.317078,1.53514 c -0.174393,0.844327 -0.317078,1.676801 -0.317078,1.849942 0,0.22288 0.830533,0.319255 2.84427,0.330051 3.276738,0.01756 4.870874,0.24375 5.02739,0.713312 0.077,0.231031 -0.193756,0.312839 -0.904302,0.273217 -0.55783,-0.03111 -2.376205,-0.09475 -4.040837,-0.141425 z"
       id="path1017" /><path
       style="fill:#e3e535;stroke-width:0.264583;fill-opacity:1"
       d="m 47.789897,28.769799 c -0.156139,-0.406893 0.600965,-7.966774 0.952331,-9.509271 l 0.180809,-0.79375 3.15892,-0.213947 c 4.913576,-0.332786 4.956902,-0.332932 5.064292,-0.01709 0.160894,0.473204 -0.483256,0.596242 -4.129242,0.788723 l -3.423075,0.180712 -0.149477,0.556842 c -0.08221,0.306263 -0.151103,0.997886 -0.15309,1.536941 l -0.0036,0.980098 1.764851,0.07823 c 1.117383,0.04953 1.804943,0.199569 1.874132,0.408964 0.08088,0.244781 -0.403346,0.330729 -1.863327,0.330729 h -1.972607 l -0.153828,0.992187 c -0.08461,0.545703 -0.235308,1.914922 -0.334894,3.042708 -0.172274,1.950959 -0.465295,2.541891 -0.812182,1.637918 z"
       id="path1025" /><path
       style="fill:#e3e535;stroke-width:0.264583;fill-opacity:1"
       d="m 44.033122,15.151879 c -0.104242,-0.104242 -0.11034,-1.860413 -0.01355,-3.902604 L 44.195551,7.5362025 43.674175,6.0067697 C 43.18758,4.5793649 43.255974,3.9817913 43.863,4.3569538 c 0.340027,0.2101482 1.065208,2.6774246 1.065208,3.6241458 v 0.7457278 l 2.711979,0.01823 c 1.491588,0.010028 3.024968,0.059896 3.407511,0.1108226 l 0.695533,0.092593 0.183698,-1.8642442 C 52.151645,4.8037202 52.501969,3.75934 52.90652,4.163891 c 0.204587,0.2045872 0.201795,0.7677345 -0.0098,1.9829866 -0.16256,0.9334899 -0.295564,3.3345326 -0.295564,5.3356514 0,2.792803 -0.07686,3.612914 -0.330729,3.528754 -0.226416,-0.07506 -0.354482,-0.905573 -0.406038,-2.633174 L 51.789049,9.8545754 50.570658,9.6875762 C 49.900544,9.5957269 48.36689,9.5205773 47.162539,9.5205773 h -2.18973 l -0.188631,2.9104167 c -0.177862,2.744237 -0.296805,3.175137 -0.751056,2.720885 z"
       id="path1039" /><path
       style="fill:#e3e535;stroke-width:0.264583;fill-opacity:1"
       d="m 79.92835,14.055633 c -0.35293,-0.35293 -0.194823,-6.5764284 0.180099,-7.0891644 0.196068,-0.2681396 0.407194,-0.3801927 0.469167,-0.249007 0.194984,0.4127431 -0.06292,7.5145604 -0.272891,7.5145604 -0.109993,0 -0.279362,-0.07938 -0.376375,-0.176389 z M 79.85557,4.0662391 c -0.158249,-0.4123885 0.31621,-1.475883 0.658438,-1.475883 0.426487,0 1.15047,1.0483691 0.998132,1.4453538 -0.196345,0.5116682 -1.462982,0.5350113 -1.65657,0.030529 z"
       id="path1035" /><path
       style="fill:#e3e535;stroke-width:0.306272;fill-opacity:1"
       d="m 61.341794,28.531733 -2.778125,-0.196501 -0.07576,-3.899053 c -0.04167,-2.144479 0.04149,-4.218476 0.184799,-4.608882 0.143308,-0.390405 0.298094,-1.028905 0.343969,-1.418887 0.04587,-0.389982 0.20084,-0.709058 0.344368,-0.709058 0.370591,0 0.491622,1.95991 0.149352,2.418536 -0.165012,0.221109 -0.285267,1.841472 -0.285267,3.843796 v 3.461549 l 2.576622,0.101477 c 2.208028,0.08695 2.589298,0.190224 2.665233,0.721897 0.04874,0.341234 -0.0094,0.589197 -0.129226,0.551028 -0.119811,-0.03816 -1.467994,-0.157823 -2.995963,-0.265897 z"
       id="path1023" /><path
       style="fill:#e3e535;stroke-width:0.306272;fill-opacity:1"
       d="m 109.93143,14.466809 -2.77812,-0.196501 -0.0758,-3.899053 c -0.0417,-2.1444783 0.0415,-4.2184753 0.18479,-4.6088813 0.14331,-0.390405 0.2981,-1.028905 0.34397,-1.418887 0.0459,-0.389982 0.20084,-0.709058 0.34437,-0.709058 0.37059,0 0.49162,1.95991 0.14935,2.418536 -0.16501,0.221109 -0.28526,1.841472 -0.28526,3.8437953 v 3.461549 l 2.57662,0.101477 c 2.20803,0.08695 2.5893,0.190224 2.66523,0.721897 0.0487,0.341234 -0.009,0.589197 -0.12922,0.551028 -0.11982,-0.03816 -1.468,-0.157823 -2.99597,-0.265897 z"
       id="path1023-6" /><path
       style="fill:#e3e535;stroke-width:0.264583;fill-opacity:1"
       d="m 17.417889,15.23396 c -0.01053,-0.03638 -0.05938,-0.780521 -0.108564,-1.653646 -0.04918,-0.873125 -0.172455,-2.748149 -0.273945,-4.1667202 l -0.184526,-2.57922 -0.785635,0.6610682 c -0.4321,0.3635875 -1.074115,0.7334721 -1.426702,0.8219657 -0.352586,0.088494 -0.641066,0.2670524 -0.641066,0.3967977 0,0.1297453 -0.182825,0.2359004 -0.406277,0.2359004 -0.224175,0 -0.627471,-0.5040172 -0.899767,-1.1244791 C 12.419988,7.2071632 12.033514,6.4854733 11.832577,6.2218713 L 11.467236,5.7425948 10.163771,7.6770795 C 9.4468657,8.741046 8.5863661,9.8967385 8.2515499,10.245285 7.9167338,10.593832 7.2703097,11.635629 6.8150515,12.560389 5.9945718,14.22702 5.7203555,14.497972 5.3919311,13.966571 5.1757011,13.616703 6.3912025,11.25779 7.4996452,9.8761473 8.7205146,8.3543686 10.636909,5.5000891 11.008117,4.6506269 c 0.361996,-0.8283836 0.822601,-0.9466801 1.030194,-0.2645833 0.0775,0.2546614 0.471033,1.1331495 0.874508,1.9521957 l 0.73359,1.4891749 0.903125,-0.3786663 c 0.496719,-0.2082665 1.29031,-0.7531481 1.763536,-1.2108476 0.522147,-0.5050152 0.949951,-0.7335654 1.088165,-0.5813416 0.270059,0.2974308 0.908749,9.0367623 0.686687,9.3960673 -0.136246,0.220451 -0.620758,0.351576 -0.670033,0.181334 z"
       id="path1007" /><path
       style="fill:#e3e535;stroke-width:0.264583;fill-opacity:1"
       id="path989"
       d="" /><path
       style="fill:#e3e535;stroke-width:0.264583;fill-opacity:1"
       id="path987"
       d="" /><path
       style="fill:#e3e535;stroke-width:0.264583;fill-opacity:1"
       d="m 68.360162,13.699757 c -0.247094,-0.643916 0.0088,-8.1239646 0.280272,-8.1911309 0.145521,-0.03601 0.302846,0.3342521 0.34961,0.8228054 l 0.08503,0.8882792 0.668754,-0.6236959 0.668753,-0.6236956 1.037038,1.1640054 c 0.57037,0.640203 1.113852,1.4736405 1.207737,1.8520832 0.09389,0.3784428 0.491403,1.2052132 0.883372,1.8372692 0.854898,1.378536 0.970213,1.212541 1.327971,-1.9116152 0.237106,-2.0705444 0.88259,-3.6096411 1.327332,-3.1648993 0.130661,0.130661 0.0678,0.686599 -0.14531,1.2850552 -0.206579,0.5801225 -0.381488,1.531018 -0.388687,2.1131013 -0.0072,0.5820832 -0.119932,1.475051 -0.250519,1.984374 -0.130586,0.509323 -0.310784,1.253464 -0.40044,1.653646 -0.08966,0.400182 -0.282206,0.727604 -0.42789,0.727604 -0.396232,0 -2.635455,-3.5800286 -2.635455,-4.2135167 0,-0.3019403 -0.0893,-0.5497351 -0.198438,-0.5506553 C 71.640148,8.7478511 71.33835,8.3737996 71.078628,7.9175455 L 70.606405,7.0879929 69.954149,7.7007557 69.301893,8.3135185 v 2.8642955 c 0,2.395741 -0.06628,2.864296 -0.405179,2.864296 -0.222848,0 -0.464297,-0.154059 -0.536552,-0.342353 z"
       id="path1033" /><path
       style="fill:#e3e535;stroke-width:0.300333;fill-opacity:1"
       d="m 108.46012,28.827815 c -0.25535,-0.604943 -0.64372,-1.267332 -0.86306,-1.471974 -0.21934,-0.204646 -0.39879,-0.557781 -0.39879,-0.784749 0,-0.226967 -0.57542,-1.170526 -1.27872,-2.096797 -0.70329,-0.92627 -1.23352,-1.833586 -1.17828,-2.016257 0.0552,-0.182671 0.85372,-0.332129 1.77441,-0.332129 h 1.67399 l -0.0598,-0.928878 c -0.0746,-1.158865 -0.47015,-1.448373 -1.98728,-1.454552 -0.97267,-0.004 -1.28589,0.147102 -1.66942,0.805165 -0.40626,0.697016 -0.44478,1.363503 -0.27608,4.776614 l 0.19603,3.966572 h -0.58022 -0.58022 l -3.3e-4,-3.1048 c -1.9e-4,-1.707639 -0.17685,-4.145351 -0.39261,-5.417136 -0.37232,-2.194857 -0.25732,-2.916079 0.39294,-2.464276 0.15579,0.108248 0.28325,0.497156 0.28325,0.864251 v 0.667441 l 0.4957,-0.486532 c 0.27264,-0.267593 1.13067,-0.562536 1.90675,-0.65543 1.76497,-0.211258 2.8701,0.541887 3.13635,2.137435 0.28723,1.721202 -0.22307,2.40867 -1.78793,2.40867 h -1.32781 l 0.87888,0.902442 c 0.48338,0.496344 0.97384,1.23877 1.08989,1.649836 0.11605,0.411066 0.57749,1.316153 1.02541,2.011304 0.44793,0.695151 0.81442,1.457358 0.81442,1.693793 0,0.843463 -0.83122,0.41089 -1.28747,-0.670013 z"
       id="path1015" /><path
       style="fill:#e3e535;stroke-width:0.264583;fill-opacity:1"
       d="m 85.120386,27.41122 c 0,-0.314598 -1.132265,-2.617092 -1.488751,-3.02742 -0.123755,-0.142447 -1.337115,1.175045 -1.690793,1.835897 -0.650279,1.215057 -1.31735,0.469342 -3.764785,-4.208633 -0.856693,-1.637466 -1.208631,-2.569396 -1.035644,-2.742383 0.26132,-0.26132 1.054108,0.82195 1.885899,2.576901 0.206917,0.436563 0.777992,1.477715 1.269055,2.313672 l 0.892842,1.519922 0.577026,-0.728265 c 1.056918,-1.333937 1.160431,-1.682107 0.909902,-3.060489 -0.39984,-2.199877 0.455923,-2.242462 0.901081,-0.04484 0.08642,0.426636 0.251281,0.285644 0.850853,-0.72766 0.70429,-1.190285 1.222481,-1.43204 1.222481,-0.570332 0,0.425087 -0.654718,1.532454 -1.377613,2.330044 l -0.455789,0.502885 0.784409,0.990398 c 0.431426,0.544719 0.78441,1.181624 0.78441,1.415344 0,0.880833 0.414124,0.367547 0.886138,-1.098323 0.629618,-1.955319 2.245377,-4.885323 2.624362,-4.758994 0.523428,0.174476 0.483011,0.615603 -0.141038,1.539361 -0.336794,0.498544 -0.946746,1.739882 -1.355449,2.758527 -1.315515,3.278772 -1.469575,3.571875 -1.877441,3.571875 -0.220636,0 -0.401155,-0.174369 -0.401155,-0.387487 z"
       id="path1019" /><path
       style="fill:#e3e535;stroke-width:0.264583;fill-opacity:1"
       d="m 69.373428,30.173727 c -0.0894,-0.08944 0.0197,-0.440798 0.24243,-0.780795 0.45497,-0.694365 0.30706,-1.471979 -0.46898,-2.465706 -0.28681,-0.36726 -0.49277,-1.058427 -0.49277,-1.653646 0,-0.811083 -0.0992,-1.022651 -0.47967,-1.022651 -0.26382,0 -0.81363,-0.348582 -1.2218,-0.774627 -0.59833,-0.62452 -0.72076,-0.957779 -0.6318,-1.719791 0.0878,-0.751912 0.0196,-0.945166 -0.3333,-0.945166 -0.66622,0 -1.08786,-0.662958 -1.23136,-1.936105 -0.10661,-0.945806 -0.0154,-1.273789 0.53059,-1.908574 l 0.65932,-0.766507 0.7165,0.326457 0.71649,0.326457 0.52443,-0.666697 c 0.6048,-0.768888 2.06303,-0.920063 2.60268,-0.269822 0.18116,0.218281 0.61837,0.396875 0.97158,0.396875 1.35148,0 2.99717,1.341249 2.99717,2.442711 0,0.260087 -0.23076,0.670467 -0.5128,0.911957 l -0.5128,0.439073 0.38051,0.543251 c 0.52123,0.744163 0.4783,2.012723 -0.0825,2.438445 -0.55746,0.423178 -2.23069,0.479183 -2.6221,0.08776 -0.40839,-0.408388 -1.67737,1.193375 -1.67737,2.11725 0,0.405772 0.24531,1.049629 0.54513,1.430793 0.68011,0.864615 0.9313,2.301274 0.53262,3.046216 -0.29393,0.549209 -0.82139,0.733626 -1.15218,0.402837 z m 0.27286,-7.314595 c 0.1819,-0.143273 0.33073,-0.528358 0.33073,-0.855742 0,-0.492556 -0.18768,-0.625258 -1.0879,-0.769209 -1.6526,-0.264261 -2.37774,0.641768 -1.3885,1.734864 0.44617,0.493016 1.44516,0.441843 2.14567,-0.109913 z m 3.45282,-0.513203 c 0.51172,-0.511729 0.37253,-1.006282 -0.51713,-1.837348 -0.85185,-0.795747 -0.80524,-1.153119 0.17317,-1.327902 0.88474,-0.158051 0.82132,-1.183493 -0.10275,-1.661349 -0.97823,-0.505862 -0.9563,-0.505931 -1.46689,0.0047 l -0.41681,0.416812 0.39791,0.5681 c 0.5081,0.725422 0.51129,2.003199 0.006,2.561109 l -0.39152,0.432627 0.40652,0.580394 c 0.44348,0.633145 1.40815,0.765848 1.91111,0.262895 z m -2.37929,-2.502307 c 0.0865,-0.607209 -0.91406,-1.753001 -1.39228,-1.594334 -0.40118,0.133104 -0.78256,1.366894 -0.58315,1.886539 0.26553,0.69196 1.86899,0.454777 1.97543,-0.292205 z m -2.85946,-0.39611 c 0,-0.671541 -0.9747,-2.07575 -1.44083,-2.07575 -0.64327,0 -1.0079,0.747967 -0.82915,1.700797 l 0.17125,0.912847 0.85093,0.08859 c 1.0866,0.113126 1.2478,0.0322 1.2478,-0.626484 z m 1.80677,-2.07575 c 0.62974,0 0.64836,-0.02877 0.41388,-0.639818 -0.34222,-0.891803 -1.95607,-0.07796 -1.95607,0.986416 v 0.529167 l 0.48385,-0.437882 c 0.26612,-0.240836 0.74237,-0.437883 1.05834,-0.437883 z"
       id="path1013" /><path
       style="fill:#e3e535;stroke-width:0.232527;fill-opacity:1"
       d="M 86.481644,14.481206 C 85.234327,13.810016 84.65154,12.60374 84.536608,10.455286 84.425665,8.3814292 85.010253,6.9797308 86.32313,6.1716488 87.051681,5.7232173 87.571674,5.6305325 89.750861,5.5606805 l 2.56889,-0.082344 0.444971,0.4878456 c 0.56034,0.6143269 0.316454,0.8904123 -0.434375,0.4917231 -0.828119,-0.4397339 -4.733536,-0.2112011 -5.55877,0.3252819 -1.409778,0.9165005 -1.942473,3.3760849 -1.199656,5.5390959 0.303009,0.882326 0.548924,1.17341 1.292447,1.529832 l 0.918238,0.440176 1.100335,-0.358359 c 0.605188,-0.197097 1.481816,-0.653483 1.948077,-1.014191 0.823945,-0.637426 1.136518,-0.662525 1.136518,-0.09126 0,0.381861 -1.604217,1.403497 -2.51574,1.602137 -0.410906,0.08954 -0.807023,0.259015 -0.880272,0.376603 -0.216684,0.347863 -1.091045,0.211466 -2.08988,-0.326013 z"
       id="path1029" /><path
       style="fill:#e3e535;stroke-width:0.232527;fill-opacity:1"
       d="m 34.370898,14.356322 c -1.247317,-0.67119 -1.830104,-1.877466 -1.945036,-4.02592 -0.110943,-2.0738568 0.473645,-3.4755552 1.786522,-4.2836372 0.728551,-0.4484315 1.248544,-0.5411163 3.427731,-0.6109683 l 2.56889,-0.082344 0.444971,0.4878456 c 0.56034,0.6143269 0.316454,0.8904123 -0.434375,0.4917231 -0.828119,-0.4397339 -4.733536,-0.2112011 -5.55877,0.3252819 -1.409778,0.9165005 -1.942473,3.3760849 -1.199656,5.5390959 0.303009,0.882326 0.548924,1.17341 1.292447,1.529832 l 0.918238,0.440176 1.100335,-0.358359 c 0.605188,-0.197097 1.481816,-0.653483 1.948077,-1.014191 0.823945,-0.637426 1.136518,-0.662525 1.136518,-0.09126 0,0.381861 -1.604217,1.403497 -2.51574,1.602137 -0.410906,0.08954 -0.807023,0.259015 -0.880272,0.376603 -0.216684,0.347863 -1.091045,0.211466 -2.08988,-0.326013 z"
       id="path1029-0" /></g></svg>
