<?xml version="1.0" encoding="UTF-8" standalone="no"?>
<!-- Created with Inkscape (http://www.inkscape.org/) -->

<svg
   version="1.1"
   id="svg1"
   width="1600"
   height="1600"
   viewBox="0 0 1600 1600"
   sodipodi:docname="icon.svg"
   inkscape:version="1.3.2 (091e20ef0f, 2023-11-25, custom)"
   inkscape:export-filename="icon.png"
   inkscape:export-xdpi="96"
   inkscape:export-ydpi="96"
   xmlns:inkscape="http://www.inkscape.org/namespaces/inkscape"
   xmlns:sodipodi="http://sodipodi.sourceforge.net/DTD/sodipodi-0.dtd"
   xmlns="http://www.w3.org/2000/svg"
   xmlns:svg="http://www.w3.org/2000/svg">
  <defs
     id="defs1" />
  <sodipodi:namedview
     id="namedview1"
     pagecolor="#ffffff"
     bordercolor="#000000"
     borderopacity="0.25"
     inkscape:showpageshadow="2"
     inkscape:pageopacity="0.0"
     inkscape:pagecheckerboard="true"
     inkscape:deskcolor="#d1d1d1"
     inkscape:zoom="0.50467324"
     inkscape:cx="400.25898"
     inkscape:cy="991.7308"
     inkscape:window-width="1920"
     inkscape:window-height="1053"
     inkscape:window-x="0"
     inkscape:window-y="0"
     inkscape:window-maximized="1"
     inkscape:current-layer="g1" />
  <g
     inkscape:groupmode="layer"
     inkscape:label="Image"
     id="g1">
    <g
       id="g39"
       style="stroke:#eddde0;stroke-opacity:1">
      <path
         style="fill-opacity:1;fill:#d0d0d0;stroke:#eddde0;stroke-opacity:1"
         d="M 762.5,1432.3696 C 442.81613,1407.3083 202.05136,1174.7757 169.3494,859.5 l -1.76332,-17 -0.043,-39 -0.043,-39 0.84865,-11.75 0.84865,-11.75 0.70088,0 h 0.70089 l 1.21673,10.94234 c 6.61042,59.44897 34.31527,128.28426 71.05779,176.54969 l 7.61866,10.00797 13.5061,13.5 13.50609,13.5 8.29965,6 c 17.63566,12.74921 33.47396,20.3809 52.19591,25.15061 l 9.5,2.42027 14,0.93242 c 15.9934,1.0651 19.54139,1.8834 25.49044,5.8788 l 4.26381,2.8636 2.86361,4.2639 c 1.57499,2.3451 3.33441,5.8898 3.90983,7.8771 l 1.04621,3.6133 0.92302,14.5 0.92302,14.5 1.6608,8 c 8.11365,39.0831 32.99418,70.2758 71.39138,89.5033 l 8.47212,4.2424 11.52788,3.7553 c 6.34033,2.0655 15.80288,4.5956 21.02788,5.6224 l 9.5,1.867 25.5,-0.093 25.5,-0.093 15.5,-1.6863 c 19.2187,-2.091 36.93241,-5.6143 50.85517,-10.1152 l 10.66045,-3.4463 8.65918,-4.4184 c 39.92996,-20.3748 60.76186,-50.9089 68.83749,-100.8978 l 2.06133,-12.7597 0.86231,-16.8389 0.86231,-16.83881 -0.85553,-11.40139 C 731.39284,967.24651 728.50683,957.62142 715.73134,930.5 l -7.53677,-16 -2.49628,-8 c -1.37295,-4.4 -3.08019,-11.6 -3.79386,-16 l -1.29759,-8 0.0184,-16 0.0184,-16 1.78817,-7 c 0.98349,-3.85 3.16313,-9.925 4.84363,-13.5 l 3.05545,-6.5 6.08455,-6.09233 6.08454,-6.09234 7.5,-3.56759 7.5,-3.56759 7.5,-1.57618 c 4.125,-0.8669 12.10798,-1.9681 17.73995,-2.44711 l 10.23996,-0.87094 4.05935,-2.81313 4.05935,-2.81313 4.79844,-6.07983 C 788.53619,784.23592 794.30403,776.1 798.71447,769.5 810.28722,752.18198 820.16933,739.70036 829.98795,730 l 8.60362,-8.5 7.95421,-5.6599 c 4.37482,-3.11294 11.19559,-7.28313 15.15727,-9.2671 l 7.20305,-3.6072 7.19549,-1.62495 7.19549,-1.62494 9.32418,1.14587 9.32417,1.14587 5.42211,2.02867 c 6.92961,2.5927 12.8384,6.88483 16.57037,12.03666 l 2.94518,4.06571 2.05559,6.18066 c 1.13057,3.39936 2.49298,9.55565 3.02757,13.68065 l 0.972,7.5 0.0482,14.5 c 0.0811,24.40809 2.38897,40.1889 8.62114,58.95114 l 3.47151,10.45113 5.07037,9.69566 5.07037,9.69567 6.27538,8.3532 6.27537,8.3532 9.36471,9.04977 c 15.93768,15.40171 31.7981,25.4632 63.2825,40.14506 l 19.9522,9.30413 2.2719,2.13433 2.2719,2.13432 1.1123,5.61619 c 0.6118,3.08891 2.2098,9.83216 3.5511,14.98499 l 2.4386,9.36879 3.7381,7.13121 3.7381,7.13121 6.1213,6.13579 6.1213,6.1358 8.3827,4.12005 8.3827,4.12005 8,2.07288 8,2.07287 15,0.51885 15,0.51881 6.9067,-1.45945 6.9066,-1.45949 9.0934,5.93694 c 5.0013,3.2654 14.4933,8.561 21.0933,11.7682 l 12,5.8311 10.6307,3.5489 c 5.8469,1.9519 15.0719,4.5 20.5,5.6625 l 9.8693,2.1137 14.5,0.5436 14.5,0.5436 9,-1.5856 c 11.4836,-2.0231 22.5037,-5.6245 34.4989,-11.2741 l 9.4988,-4.4739 11.0012,-7.3336 11.0011,-7.3336 11.1758,-9.61349 c 15.0719,-12.96498 34.0127,-33.6178 47.0888,-51.3453 2.5294,-3.42919 4.7489,-6.08498 4.9321,-5.90176 2.2903,2.2903 -17.3727,67.14585 -30.3595,100.13665 l -7.4794,19 -12.3339,25 c -63.2777,128.2596 -161.6819,226.7572 -289.7553,290.0301 l -22.7315,11.2302 -20.2685,8.0541 C 977.96458,1410.7841 923.65235,1423.9943 860,1430.5661 l -15.5,1.6003 -38.5,0.2976 c -21.175,0.1637 -40.75,0.1212 -43.5,-0.094 z"
         id="path42" />
      <path
         style="fill-opacity:1;fill:#a3a3a3;stroke:#eddde0;stroke-opacity:1"
         d="m 1247.5,1031.058 c -26.7678,-4.7603 -57.1706,-17.5598 -77,-32.41669 l -2,-1.49847 2,-0.6701 c 1.1,-0.36856 4.7742,-1.98506 8.165,-3.59224 l 6.165,-2.92213 5.2374,-4.70891 5.2375,-4.70891 2.3378,-5.02027 2.3378,-5.02028 -0.01,-5.5 -0.01,-5.5 -1.5117,-6.41337 -1.5117,-6.41337 -2.6811,-4.92599 -2.681,-4.92599 -5.2927,-4.83721 -5.2927,-4.83721 -5.7497,-2.68631 c -3.1624,-1.47748 -8.6343,-4.04914 -12.1597,-5.71481 l -6.4099,-3.0285 -6.0941,-6.10862 -6.0941,-6.10862 -3.6608,-7 -3.6608,-7 -1.6257,-6.30067 -1.6257,-6.30067 -0.014,-9.02613 -0.014,-9.02614 1.6883,-5.08293 1.6882,-5.08294 4.2098,-4.20973 4.2097,-4.20972 5.5014,-2.05835 c 3.0258,-1.13209 8.2935,-2.56465 11.7061,-3.18346 l 6.2046,-1.12512 13.2008,0.007 13.2008,0.007 5.9251,1.57917 c 8.4791,2.25986 13.9563,5.54474 23.5973,14.1523 10.2195,9.12402 15.1284,12.11599 23.8548,14.53938 l 6.6228,1.83923 9.5,0.56958 9.5,0.56957 8.3498,-1.51471 8.3498,-1.51472 7.5033,-3.56332 7.5034,-3.56333 6.7344,-6.75031 6.7344,-6.75031 4.1683,-8.5 4.1683,-8.5 2.1044,-8 2.1043,-8 0.5052,-16.5 0.5051,-16.5 -2.6145,-7.76853 c -7.0758,-21.02431 -22.7523,-34.26587 -56.4262,-47.66182 -35.6997,-14.2018 -51.6551,-29.90705 -78.19,-76.96414 l -7.5,-13.30051 -4.3899,-5.1525 c -10.322,-12.11519 -24.0765,-22.40956 -58.6101,-43.86612 -11.55,-7.17628 -25.275,-15.99488 -30.5,-19.59689 l -9.5,-6.54909 -8.1473,-8.08895 -8.1473,-8.08895 -2.6719,-8.98125 c -11.8572,-39.85702 -21.4091,-61.77309 -35.7092,-81.93182 l -6.3243,-8.91534 -8,-8.0879 -8,-8.08791 -8.68145,-5.77574 -8.68145,-5.77573 -7.81855,-3.38081 c -9.97191,-4.31195 -21.29084,-7.26373 -33.28882,-8.68117 l -9.47027,-1.11881 -11.52973,0.59962 -11.52973,0.59962 -7,1.93184 c -18.51885,5.11077 -31.07241,12.1148 -44.62002,24.89493 l -6.97184,6.57688 -5.33441,8.08554 c -9.7421,14.76641 -14.93123,31.22717 -18.6263,59.08555 l -1.0611,8 -0.88565,30.5 -0.88565,30.5 -1.53062,9.05758 c -0.84184,4.98167 -2.44713,12.02492 -3.56732,15.65167 l -2.03671,6.5941 -3.24019,4.81784 -3.24019,4.81784 -6.77818,5.67526 -6.77817,5.67525 -7.22183,3.56473 -7.22182,3.56473 -7,1.64449 -7,1.6445 -11.5,-0.50255 -11.5,-0.50256 -7,-2.2001 c -3.85,-1.21006 -10.15,-3.84045 -14,-5.84531 l -7,-3.6452 -7.07504,-7.00613 -7.07503,-7.00614 -3.09162,-5.5 c -1.70039,-3.025 -4.01355,-8.25209 -5.14037,-11.61577 l -2.04875,-6.11576 -0.62931,-7.88424 -0.6293,-7.88423 1.5857,-7.46482 1.5857,-7.46482 3.36964,-7.03518 c 4.00464,-8.36094 10.55835,-17.59369 24.51421,-34.53518 12.55523,-15.2412 21.89603,-29.03855 26.70376,-39.44426 l 3.61213,-7.81797 2.5382,-9.61889 2.53821,-9.61888 0.0597,-14.5 0.0597,-14.5 -1.80948,-7 c -6.62146,-25.61518 -22.8925,-45.24053 -50.7421,-61.20274 l -8.67406,-4.9716 -9.82594,-2.62703 C 689.92168,338.25376 681.45,336.32784 676.5,335.41882 l -9,-1.65278 -24,-0.49281 -24,-0.49282 -15.87778,1.1079 -15.87778,1.10789 -11.81903,2.01653 C 511.31345,348.0366 445.68923,388.03163 396.27764,446.5 c -4.18324,4.95 -9.87916,11.3625 -12.65761,14.25 l -5.05171,5.25 -2.62917,0 -2.62917,0 -1.7244,-1.90544 c -0.94842,-1.04799 -2.36816,-4.0445 -3.15499,-6.65893 L 367,452.68214 l 0,-7.78985 C 367,419.61931 378.15544,370.24119 394.0859,325 l 5.10578,-14.5 3.15416,-2.84026 C 428.56375,284.05106 491.36252,244.90944 535,224.97821 941.92165,39.118477 1405.7688,318.34771 1432.0678,765 l 1.2071,20.5 -0.5981,27.5 c -0.8526,39.19987 -3.7356,68.1926 -10.1775,102.3511 l -3.3666,17.8511 -7.1585,9.39972 c -21.3503,28.03462 -44.4629,50.62811 -67.4753,65.95978 l -11.0012,7.3294 -9.4988,4.4739 c -11.7974,5.5565 -22.9818,9.2404 -33.8799,11.1593 l -8.381,1.4757 -12.119,-0.082 -12.119,-0.082 z m 59.7248,-401.74365 6.7247,-3.18565 4.5951,-4.72798 4.5951,-4.72797 3.299,-6.58637 3.2991,-6.58638 1.6311,-6.56389 1.6311,-6.56389 v -11.72827 -11.72827 l -1.5714,-7.70784 c -0.8643,-4.23931 -2.9164,-11.75784 -4.5601,-16.70784 l -2.9885,-9 -4.9286,-9.37201 c -2.7106,-5.15461 -7.5211,-12.97297 -10.6899,-17.37415 l -5.7615,-8.00213 -8.6828,-8.26295 -8.6829,-8.26295 -7.6232,-4.75137 -7.6233,-4.75137 -8.6128,-2.9687 -8.6128,-2.96871 -10.0811,0.39412 -10.0811,0.39411 -5.7526,2.65894 -5.7527,2.65894 -5.4082,5.11488 -5.4082,5.11488 -3.5223,7.18924 -3.5222,7.18923 -1.5669,7.70784 -1.5669,7.70784 v 9.13508 9.13507 l 2.0156,9.89076 c 2.6066,12.79094 5.9112,21.9417 12.6117,34.92341 l 5.4195,10.5 5.2095,7 c 13.8102,18.5567 32.0732,32.52051 49.2437,37.65137 l 6,1.79291 10,-0.22214 10,-0.22214 z"
         id="path41" />
      <path
         style="fill-opacity:1;fill:#8c8c8c;stroke:#eddde0;stroke-opacity:1"
         d="m 410,832.96235 c -11.51425,-1.50683 -22.58938,-7.37506 -30.47776,-16.14883 l -4.51703,-5.02403 -3.51324,-7.14475 -3.51323,-7.14474 -0.85252,-7 -0.85252,-7 0.801,-6.5553 0.80099,-6.55529 2.09243,-5.30853 c 2.83701,-7.19755 6.83921,-12.79016 13.527,-18.90242 l 5.60825,-5.12563 6.40764,-3.05809 6.40765,-3.05808 7.90673,-1.15242 7.90673,-1.15242 7.20733,1.28802 7.20734,1.28803 7.06503,3.53449 7.06503,3.53449 L 452,748 l 5.72315,5.72315 3.53449,7.06503 3.53449,7.06503 1.28803,7.20734 1.28802,7.20733 -1.15242,7.90673 -1.15242,7.90673 -3.10031,6.49612 -3.10031,6.49612 -5.92897,6.33808 -5.92896,6.33809 -6.7524,3.54801 c -9.93123,5.21831 -19.694,7.04633 -30.25239,5.66459 z m 143.5,-67.44443 c -8.94882,-1.97332 -16.77023,-5.18279 -23.36914,-9.58937 l -5.89806,-3.93857 -6.3664,-6.75069 -6.3664,-6.75068 -3.778,-7.19382 -3.778,-7.19383 -1.972,-7.71044 L 500,708.68007 V 700 691.31993 l 1.972,-7.71045 1.972,-7.71044 3.77249,-7.19952 3.77249,-7.19952 7.15663,-7.50762 7.15662,-7.50763 6.34889,-3.76796 6.34888,-3.76797 8,-2.53898 8,-2.53899 8,-0.55653 8,-0.55652 8.39054,1.59261 8.39054,1.59261 6.50292,3.04309 c 3.57661,1.67369 9.35856,5.08082 12.84877,7.57138 l 6.34585,4.52831 5.05506,6.2071 5.05506,6.2071 3.4406,7 c 1.89233,3.85 4.14582,9.7 5.00777,13 l 1.56717,6 0.065,10.04426 0.065,10.04425 -2.17299,7.92063 -2.173,7.92064 -2.95611,5.53511 c -1.62587,3.04431 -4.99107,8.09601 -7.47823,11.226 l -4.52211,5.69088 -6.21588,4.70317 c -3.41874,2.58674 -9.36588,6.18935 -13.21588,8.00581 l -7,3.30265 -7.70784,1.5533 -7.70784,1.5533 -6.29216,-0.0795 C 562.33147,766.87678 556.8,766.24562 553.5,765.51792 Z m -228.08965,-99.5911 c -2.24931,-0.5396 -6.50871,-2.43139 -9.46534,-4.20396 l -5.37568,-3.22286 -3.67006,-4.86551 -3.67006,-4.8655 -1.61461,-4.99933 L 300,638.77033 v -5.84765 -5.84765 l 2.16263,-5.78014 2.16263,-5.78015 5.59474,-5.59474 5.59474,-5.59474 5.99263,-2.26049 5.99263,-2.26048 7.5,0.44381 7.5,0.44382 4.63612,2.21064 c 2.54987,1.21585 6.46847,3.77906 8.70801,5.69601 l 4.07187,3.48538 3.292,6.68998 3.292,6.68998 -0.0126,8.02274 -0.0126,8.02274 -2.73217,5.58436 -2.73217,5.58436 -4.24847,4.20642 -4.24847,4.20642 -5.05534,2.47334 -5.05533,2.47335 -6.45139,0.43514 -6.45139,0.43515 z"
         id="path40" />
      <path
         style="fill-opacity:1;fill:#767676;stroke:#eddde0;stroke-opacity:1"
         d="m 524.5,1165.3937 c -16.76573,-2.4945 -31.60919,-6.6844 -45.78777,-12.9243 l -9.83408,-4.328 -11.3219,-7.5399 -11.32189,-7.5398 -9.00211,-9.0451 -9.00211,-9.045 -5.17993,-7.4931 -5.17993,-7.493 -4.87916,-10.2427 -4.87916,-10.2428 -2.54987,-8.8408 -2.54987,-8.8408 -0.99296,-8.6592 c -0.54613,-4.7626 -1.39604,-13.8749 -1.88869,-20.2495 l -0.89574,-11.5904 -1.99014,-4.499 -1.99014,-4.4991 -3.78788,-3.7879 -3.78789,-3.7879 -4.46572,-1.9754 -4.46572,-1.9754 -11.12367,-0.90676 c -16.99459,-1.38542 -26.08383,-2.79739 -35.51429,-5.51699 L 323.5,991.88804 313.32652,987.04197 c -12.59516,-5.99962 -22.11069,-12.07164 -34.03407,-21.71769 l -9.20756,-7.44895 -9.65645,-10.15577 -9.65646,-10.15577 -9.13599,-12.19602 C 203.73742,874.77534 174.80752,798.68811 171.35986,740.53764 L 170.76474,730.5 172.91018,715 C 194.49386,559.0657 279.58154,405.41311 394.94765,314.04147 l 3.93235,-3.11448 -2.47488,6.2865 c -5.05472,12.83963 -14.57606,43.72296 -19.33153,62.70362 l -4.90636,19.58289 -2.70598,16 -2.70598,16 -0.0933,12.02264 -0.0933,12.02264 2.46567,4.97736 2.46567,4.97736 2.75201,0.94375 2.75201,0.94375 2.74799,-2.0362 c 1.5114,-1.1199 8.66145,-8.99751 15.88901,-17.50579 l 13.14102,-15.4696 11.39939,-10.64293 C 457.58345,386.81293 492.49444,364.01907 530.5,349.70447 l 12,-4.51973 14.5,-3.56495 c 7.975,-1.96073 19.225,-4.30277 25,-5.20453 l 10.5,-1.63958 34.02484,-0.49949 34.02484,-0.49949 11.27892,1.65406 c 6.20341,0.90974 15.64223,2.77196 20.97516,4.13828 l 9.69624,2.48421 6,2.92691 c 3.3,1.60981 9.58969,5.29074 13.97708,8.17986 l 7.97708,5.25294 7.89867,7.54352 7.89866,7.54352 4.25635,6 c 5.70805,8.04641 9.99478,16.80269 12.56768,25.67137 l 2.12612,7.32863 0.49557,13.5 0.49558,13.5 -1.98974,9.61862 -1.98974,9.61861 -3.57563,8.77036 -3.57564,8.77035 -5.28102,8.38989 c -2.90456,4.61444 -11.5195,16.1394 -19.1443,25.61103 -20.26414,25.17236 -25.98588,34.28556 -29.14763,46.42433 L 700,562.4202 V 571 v 8.5798 l 1.53855,5.9601 c 0.8462,3.27806 2.80263,8.6601 4.34762,11.9601 l 2.80907,6 4.54087,5.54566 c 5.39387,6.58742 13.03601,12.54852 21.68336,16.91369 l 6.29348,3.17694 7.64352,2.02965 7.64353,2.02966 11,0.14958 11,0.14959 5.5,-1.34225 c 3.025,-0.73824 9.1,-3.09989 13.5,-5.24812 l 8,-3.90587 7.72588,-6.52724 7.72587,-6.52725 3.40997,-7.22202 3.40997,-7.22202 1.59515,-7 c 2.59562,-11.39034 3.47084,-21.56918 4.12721,-48 l 0.62084,-25 1.49953,-13.38498 1.49952,-13.38498 3.40526,-13.51927 3.40525,-13.51927 3.46051,-7.28683 c 1.90328,-4.00777 5.24478,-9.90086 7.42556,-13.09576 l 3.96506,-5.80891 7.36221,-7.1095 7.36221,-7.10949 7.44624,-4.81591 c 13.30342,-8.60406 26.8171,-13.41585 43.41411,-15.45837 l 8.86035,-1.0904 12.01003,1.1049 12.01003,1.1049 9.18019,2.32874 c 12.22271,3.10055 21.92296,7.33962 32.35393,14.13886 l 8.61182,5.61346 9.1223,9.1464 9.1223,9.14641 7.2154,10.95127 7.2155,10.95127 5.3682,11.04873 c 6.5174,13.41373 14.1709,33.91749 18.6262,49.89923 l 3.3037,11.85051 2.879,4.34657 c 6.4151,9.68495 19.4653,19.66271 52.2607,39.95685 25.2053,15.59731 40.2777,25.92852 50,34.27204 l 8,6.86546 4.1669,5.42904 c 2.2918,2.98597 7.1991,10.82903 10.905,17.42903 26.2559,46.75938 42.8123,62.91233 79.4413,77.50525 20.5162,8.17365 32.3181,15.24498 41.988,25.15801 l 5.8181,5.9644 3.6411,6.9289 3.641,6.9289 1.4319,6.75727 1.432,6.75727 0.017,7.02623 c 0.021,8.62864 -1.5421,21.79985 -3.6173,30.47377 l -1.5551,6.5 -3.9452,8.27372 -3.9451,8.27373 -6.4392,6.8259 -6.4393,6.82591 -5.9567,3.17492 -5.9568,3.17493 -7.7239,1.97545 -7.7239,1.97544 -10.0901,-0.0174 -10.09,-0.0174 -6.9826,-1.47906 -6.9825,-1.47907 -5.0847,-2.48772 -5.0847,-2.48772 -9.8313,-8.62856 -9.8313,-8.62855 -5.9488,-2.81337 -5.9489,-2.81337 -7.1526,-1.20988 -7.1526,-1.20988 -13,0.5823 -13,0.5823 -5.7805,1.54889 c -7.569,2.02813 -12.7331,4.72589 -16.7658,8.75857 l -3.2774,3.2774 -2.0077,4.51123 -2.0078,4.51122 -0.4505,7.60446 -0.4504,7.60445 1.6656,8.21995 1.6655,8.21994 2.3115,5.1756 c 1.2713,2.84658 4.3618,7.8756 6.8677,11.1756 l 4.5562,6 4.8368,3.6508 4.8368,3.6508 11.5,5.52495 11.5,5.52495 2.6626,2.45112 c 1.4645,1.34812 4.2645,4.54964 6.2223,7.11449 l 3.5596,4.66337 2.0488,6.63337 2.0489,6.63338 0.1459,7.57638 0.1459,7.57639 -2.1064,4.0914 -2.1064,4.0914 -4.6486,4.58294 -4.6486,4.58294 -7.162,3.53772 -7.162,3.53773 -7.5,1.60436 -7.5,1.60435 -13,-0.0331 -13,-0.0331 -8.1507,-1.55302 c -10.3503,-1.97213 -18.0135,-4.61122 -25.1849,-8.67327 l -5.6644,-3.20844 -6.0183,-6.08815 -6.0183,-6.08815 -3.6973,-7.4828 -3.6973,-7.4828 -3.4624,-14.49502 -3.4625,-14.49501 -3.1502,-2.63816 -3.1502,-2.63816 -11.6718,-5.25843 C 976.5654,887.15521 946.67227,854.52174 936.37661,798.01345 L 934.82548,789.5 933.99422,765 l -0.83127,-24.5 -1.70611,-7.5 -1.70611,-7.5 -2.4104,-4.7859 c -1.32573,-2.63225 -4.0099,-6.55635 -5.96483,-8.72022 l -3.55441,-3.93432 -5.16055,-2.49933 c -2.8383,-1.37463 -7.84258,-3.18803 -11.12064,-4.02978 L 895.5798,700 h -9.1084 l -9.1084,0 -5.4315,1.61152 c -10.6707,3.166 -23.7292,11.0927 -36.55591,22.18998 l -7.74241,6.6985 -8.18133,9.7272 c -4.49973,5.34996 -13.49063,17.49996 -19.97978,27 -6.48916,9.50004 -13.57611,19.42127 -15.74879,22.04718 l -3.95034,4.77438 -4.33032,2.53774 -4.33033,2.53774 -11.34399,0.85553 -11.34399,0.85552 -6.46216,1.65985 c -3.55418,0.91291 -9.38332,3.08747 -12.95363,4.83235 l -6.49149,3.17251 -6.11852,6 -6.11853,6 -2.79628,5.5 c -1.53795,3.025 -3.67954,8.2 -4.75909,11.5 l -1.96281,6 -0.49229,17.74397 -0.49228,17.74398 1.69421,10.13211 c 2.35552,14.08701 5.35335,22.66326 14.98869,42.87994 l 8.34057,17.5 2.48513,8 c 1.36681,4.4 3.09797,11.375 3.84701,15.5 l 1.36189,7.5 -0.041,20 -0.041,20 -1.26252,10.5 c -0.69439,5.775 -2.34739,15.9263 -3.67334,22.5584 l -2.41082,12.0583 -3.62416,10.4417 c -4.31142,12.4217 -9.78581,23.2234 -15.9348,31.4416 l -4.48931,6 -9.25888,8.3497 C 665.00557,1147.9759 640.55694,1157.9956 595,1163.504 l -13.5,1.6323 -27,0.3519 c -14.85,0.1935 -28.35,0.151 -30,-0.094 z M 429,831.86325 c 2.475,-0.55962 7.53858,-2.61409 11.25239,-4.56549 l 6.7524,-3.54801 5.92896,-6.33809 5.92897,-6.33808 3.10031,-6.49612 3.10031,-6.49612 1.15242,-7.90673 1.15242,-7.90673 -1.28802,-7.20733 -1.28803,-7.20734 -3.53449,-7.06503 -3.53449,-7.06503 L 452,748 l -5.72315,-5.72315 -7.06503,-3.53449 -7.06503,-3.53449 -7.20734,-1.28803 -7.20733,-1.28802 -7.90673,1.15242 -7.90673,1.15242 -6.40765,3.05808 -6.40764,3.05809 -5.60825,5.12563 c -6.68779,6.11226 -10.68999,11.70487 -13.527,18.90242 l -2.09243,5.30853 -0.80099,6.55529 -0.801,6.5553 0.85252,7 0.85252,7 3.51323,7.14474 3.51324,7.14475 4.51703,5.02403 c 12.47598,13.87629 30.46618,19.34839 49.47776,15.04973 z m 150.79216,-66.41655 7.70784,-1.5533 7,-3.30265 c 3.85,-1.81646 9.79714,-5.41907 13.21588,-8.00581 l 6.21588,-4.70317 4.52211,-5.69088 c 2.48716,-3.12999 5.85236,-8.18169 7.47823,-11.226 l 2.95611,-5.53511 2.173,-7.92064 2.17299,-7.92063 -0.065,-10.04425 -0.065,-10.04426 -1.56717,-6 c -0.86195,-3.3 -3.11544,-9.15 -5.00777,-13 l -3.4406,-7 -5.05506,-6.2071 -5.05506,-6.2071 -6.34585,-4.52831 c -3.49021,-2.49056 -9.27216,-5.89769 -12.84877,-7.57138 l -6.50292,-3.04309 -8.39054,-1.59261 -8.39054,-1.59261 -8,0.55652 -8,0.55653 -8,2.53899 -8,2.53898 -6.34888,3.76797 -6.34889,3.76796 -7.15662,7.50763 -7.15663,7.50762 -3.77249,7.19952 -3.77249,7.19952 -1.972,7.71044 -1.972,7.71045 V 700 v 8.68007 l 1.972,7.71045 1.972,7.71044 3.778,7.19383 3.778,7.19382 6.3664,6.75068 6.3664,6.75069 5.89806,3.93857 c 9.93638,6.63526 23.57543,10.83925 35.6613,10.99195 L 572.08432,767 Z m -232.33405,-101.88241 5.05534,-2.47334 4.24847,-4.20642 4.24847,-4.20642 2.73217,-5.58436 2.73217,-5.58436 0.0126,-8.02274 0.0126,-8.02274 -3.292,-6.68998 -3.292,-6.68998 -4.07187,-3.48538 c -2.23954,-1.91695 -6.15814,-4.48016 -8.70801,-5.69601 L 342.5,600.69192 335,600.2481 l -7.5,-0.44381 -5.99263,2.26048 -5.99263,2.26049 -5.59474,5.59474 -5.59474,5.59474 -2.16263,5.78015 L 300,627.07503 v 5.84765 5.84765 l 1.6146,4.99933 1.61461,4.99933 3.67006,4.8655 3.67006,4.86551 5.37568,3.22286 c 2.95663,1.77257 7.21603,3.66436 9.46534,4.20396 l 4.08965,0.98111 6.45139,-0.43515 6.45139,-0.43514 z m 930.67279,-32.10529 -6.3692,-1.382 -6.3085,-2.9521 c -8.7191,-4.08015 -17.338,-10.1082 -25.6101,-17.91171 l -7.0087,-6.61166 -6.3073,-8.40397 -6.3073,-8.40396 -5.0175,-9.6468 C 1209.2357,564.67523 1204.8817,552.64606 1202.481,541 l -1.7522,-8.5 -0,-11 -0,-11 1.6662,-6.93539 1.6662,-6.93538 3.0726,-6.24133 3.0726,-6.24134 4.2683,-4.45465 c 2.3476,-2.45007 6.2506,-5.61637 8.6735,-7.03625 l 4.4051,-2.58158 6.4754,-1.66083 6.4753,-1.66083 7.167,0.60403 7.1671,0.60402 8.1574,2.97707 8.1573,2.97707 8.1756,5.45926 8.1756,5.45925 7.7715,7.83344 c 17.1702,17.30699 27.8691,36.29703 34.4256,61.10394 l 2.5716,9.7295 0.081,14 0.081,14 -1.7866,6.42004 c -0.9827,3.53102 -3.1395,9.09987 -4.7929,12.37523 l -3.0061,5.95519 -4.7917,4.7917 -4.7917,4.7917 -4.8807,2.45869 c -9.2786,4.67417 -18.7379,5.66435 -30.2498,3.16645 z"
         id="path39" />
    </g>
    <path
       style="fill:#e9564a;fill-opacity:1;stroke:#eddde0;stroke-width:14.758;paint-order:stroke fill markers;stroke-opacity:1"
       d="m 520.37557,1163.4314 c -20.95413,-3.1259 -44.94304,-12.228 -61.59033,-23.3692 -23.344,-15.6229 -46.21696,-46.2069 -52.47469,-70.1651 -1.26212,-4.8321 -3.4684,-19.148 -4.90284,-31.8132 -2.20549,-19.473 -3.32603,-23.7961 -7.25929,-28.0067 -7.04687,-7.5438 -13.016,-9.8806 -29.05579,-11.37496 -22.5757,-2.10322 -37.59225,-6.12461 -54.36941,-14.56001 -28.68599,-14.42303 -53.83499,-37.9127 -76.4119,-71.37022 C 194.10918,853.195 166.90903,765.3259 173.6166,716.69991 c 9.32511,-67.60168 29.22661,-130.67942 62.57978,-198.34647 36.21015,-73.4633 82.68337,-135.99408 136.60383,-183.80358 11.23596,-9.96256 20.74298,-17.79977 21.12671,-17.41603 0.38376,0.38374 -2.82937,11.99038 -7.14027,25.79253 -18.92361,60.58765 -25.88306,104.06834 -18.83769,117.69262 6.1067,11.80902 10.4996,9.63036 31.59567,-15.66987 23.13387,-27.74414 67.74949,-62.93074 102.21369,-80.61191 43.01855,-22.06981 70.44259,-28.28469 126.90386,-28.75911 57.54969,-0.48356 78.64185,5.17323 104.95782,28.14912 12.68738,11.07704 18.116,18.3593 25.52248,34.23729 4.4855,9.61599 5.16077,13.59989 5.1833,30.58006 0.042,31.62613 -5.35054,43.3176 -41.87312,90.78506 -8.67519,11.27492 -17.51281,25.14528 -19.63917,30.82302 -11.14917,29.77024 2.5902,62.10005 32.68785,76.91707 10.2534,5.04773 15.62177,6.36825 28.54865,7.02243 19.26668,0.97499 33.03816,-3.44267 48.27313,-15.48522 16.82837,-13.30204 19.41512,-23.61194 23.19429,-92.44401 3.04736,-55.50289 12.01073,-80.85555 35.56645,-100.59875 26.76633,-22.43415 61.27396,-29.3621 97.24092,-19.52263 41.77902,11.42947 73.16622,49.68913 92.13762,112.31191 6.0672,20.02701 7.2307,22.2015 17.2442,32.22802 6.3202,6.3284 25.6955,20.30133 47.0938,33.96271 49.347,31.50468 54.6822,36.47184 74.2526,69.1299 18.6015,31.04123 38.52,52.70596 56.319,61.25635 5.9059,2.83712 19.0844,9.09922 29.2855,13.91579 32.566,15.3764 44.7737,29.91093 46.4308,55.28086 3.3967,52.00155 -23.1453,83.32695 -67.998,80.25267 -17.0699,-1.16999 -23.2445,-3.85606 -37.0503,-16.11757 -5.4175,-4.81153 -13.1144,-10.12433 -17.1041,-11.80619 -17.3686,-7.32177 -51.6377,-5.11729 -65.0613,4.18529 -9.4012,6.51502 -12.2779,14.88513 -11.0438,32.13328 1.7345,24.2418 13.3599,40.27585 37.1915,51.29528 16.697,7.7205 24.0402,16.14534 27.1991,31.20517 3.6444,17.37497 -1.375,27.05337 -18.6724,36.00393 -8.6064,4.45339 -13.0741,5.31981 -30.9689,6.00576 -27.2727,1.04541 -44.3624,-3.63478 -57.5037,-15.74799 -10.673,-9.83809 -15.5754,-19.04495 -20.9613,-39.3661 l -4.0989,-15.4654 -27.3331,-13.82743 C 1005.9645,896.83185 988.9062,885.64102 975.11964,871.8341 948.61895,845.29428 935.1838,810.26819 935.1838,767.71942 c 0,-39.95472 -7.1264,-57.50455 -26.25719,-64.6623 -11.90801,-4.45536 -27.08862,-5.26801 -38.61413,-2.06711 -10.07827,2.799 -34.17171,19.29294 -44.63951,30.55947 -4.79009,5.15559 -17.34287,21.38498 -27.89504,36.06531 -12.39671,17.24645 -21.0145,27.38406 -24.35365,28.64863 -2.84232,1.07641 -10.77879,2.52054 -17.63659,3.20918 -18.36625,1.84426 -31.73544,7.52811 -40.7756,17.33554 -11.52865,12.50709 -16.0647,26.56976 -16.0647,49.80375 0,23.8859 4.39855,41.85552 16.59014,67.77671 17.33979,36.86701 20.33328,62.8382 12.66202,109.8546 -6.4326,39.4248 -18.16572,62.9004 -40.82115,81.675 -32.39519,26.846 -63.95552,36.2359 -129.00143,38.381 -14.49633,0.4781 -31.59696,0.088 -38.0014,-0.8678 z M 437.33021,829.60264 c 19.58189,-8.85369 29.64129,-24.2088 29.8655,-45.58794 0.22676,-21.62612 -8.54153,-36.15599 -27.91313,-46.25464 -12.11073,-6.31347 -34.32207,-6.3664 -46.34519,-0.11045 -23.7986,12.38306 -34.06503,44.7915 -21.83531,68.92828 4.48702,8.8557 19.11726,21.91081 27.60067,24.62915 10.9977,3.524 28.93245,2.77907 38.62746,-1.6044 z m 160.27112,-69.38423 c 13.53425,-7.2934 23.7498,-17.89675 30.51545,-31.6738 4.73588,-9.64376 5.41833,-13.28551 5.3636,-28.62104 -0.0525,-14.69314 -0.88381,-19.33017 -5.07547,-28.30932 -10.44045,-22.36489 -30.99581,-36.65895 -55.3675,-38.50218 -29.29119,-2.21529 -53.87053,10.82441 -67.05495,35.57363 -4.72539,8.87031 -5.20032,11.72318 -5.20032,31.23787 0,19.51469 0.47493,22.36757 5.20032,31.23788 8.0847,15.17623 21.74174,26.78782 38.84289,33.02524 13.99527,5.10462 39.49795,3.18704 52.77598,-3.96828 z M 350.41009,663.24479 c 22.08982,-12.51101 22.08982,-46.89238 0,-59.40339 -9.10683,-5.15782 -23.72482,-5.90556 -31.9814,-1.6359 -13.88998,7.18277 -21.57106,22.5642 -18.81779,37.68279 4.11411,22.59123 30.62704,34.78136 50.79919,23.3565 z"
       id="path43" />
    <path
       style="fill:#c78a8c;fill-opacity:1;stroke:#eddde0;stroke-width:14.758;paint-order:stroke fill markers;stroke-opacity:1"
       d="M 728.2329,1427.9824 C 619.72338,1413.6852 513.84377,1372.8553 430.49693,1313.1678 371.47701,1270.9016 317.5339,1215.8081 277.37223,1156.7775 208.33883,1055.3104 167.70052,925.11448 167.98561,806.32758 l 0.0773,-32.21406 5.78354,22.1291 c 3.18094,12.171 9.63694,31.98417 14.34666,44.02927 39.44373,100.87725 99.00182,158.39603 172.01858,166.12851 14.83202,1.5707 23.10734,4.161 26.98605,8.4469 1.95313,2.1582 4.51118,13.5655 7.09803,31.6525 3.48444,24.3632 5.10465,30.4407 11.70262,43.8972 22.24078,45.36 64.32987,74.4481 117.60998,81.281 21.36632,2.7401 73.74221,-0.456 99.46168,-6.0693 54.45525,-11.885 92.19727,-44.3861 106.74344,-91.9207 6.99344,-22.8534 10.72898,-53.269 9.57738,-77.98082 -1.17871,-25.29311 -3.45436,-34.07773 -17.40453,-67.18568 -16.19838,-38.44357 -19.17893,-70.88063 -8.63021,-93.92205 7.55658,-16.50574 18.14473,-22.82624 45.78152,-27.32884 8.94411,-1.45718 18.3438,-4.01347 20.8882,-5.68062 2.54443,-1.66717 15.26786,-17.08283 28.27434,-34.25704 24.36249,-32.16908 32.02924,-39.8525 51.4132,-51.52491 13.85165,-8.34103 23.10831,-10.0656 37.73215,-7.0297 13.61296,2.82604 22.66013,10.86669 25.94245,23.05628 1.22134,4.53574 3.02919,21.61469 4.01744,37.95323 2.5674,42.44669 8.01667,61.55376 24.74073,86.74959 16.17989,24.37605 38.02512,41.34035 81.71154,63.4545 l 23.9756,12.13654 3.3922,12.53193 c 7.8338,28.94035 22.007,46.89525 43.5271,55.14105 12.8613,4.92814 44.2975,7.14614 60.051,4.23714 7.8316,-1.4461 10.7721,-1.2411 13.6666,0.953 6.049,4.5854 29.7315,15.759 30.9079,14.5826 0.5992,-0.5992 1.0894,-0.1356 1.0894,1.0302 0,1.1658 3.7339,3.014 8.2976,4.107 4.5637,1.093 11.8118,2.9349 16.107,4.093 37.1737,10.0237 69.7623,4.6609 106.4753,-17.5213 16.0986,-9.7269 53.9486,-45.23828 66.3094,-62.21229 4.7265,-6.49057 8.927,-11.4677 9.3344,-11.06028 0.4075,0.40742 -1.5507,9.15188 -4.3513,19.43213 -23.1515,84.98154 -62.5584,164.28204 -116.2308,233.89744 -23.2201,30.1174 -74.0444,81.1099 -103.5129,103.8553 -100.0276,77.2071 -202.32553,118.982 -327.94642,133.9221 -23.90972,2.8435 -112.076,2.1115 -136.7169,-1.1351 z"
       id="path44" />
    <path
       style="fill:#f0a59a;fill-opacity:1;stroke:#eddde0;stroke-width:14.758;paint-order:stroke fill markers;stroke-opacity:1"
       d="m 1240.7292,1021.7906 c -13.4271,-2.8332 -18.8549,-4.8876 -43.6302,-16.5142 l -12.3923,-5.81543 8.8435,-8.23545 c 12.9437,-12.05368 15.8689,-23.22245 10.8332,-41.36137 -3.9418,-14.19853 -11.6786,-22.74818 -29.6104,-32.72122 -25.0054,-13.90718 -32.7869,-25.27353 -33.3186,-48.66815 -0.2549,-11.21641 0.3405,-13.69658 4.3001,-17.9134 5.7938,-6.17007 20.1667,-9.71125 38.6392,-9.51988 16.2126,0.16796 22.8254,2.73562 36.8119,14.29336 14.7844,12.21713 23.1188,15.70193 40.3835,16.88528 27.3312,1.87333 47.9626,-6.63908 62.4052,-25.74803 10.9129,-14.43893 14.3533,-27.33701 14.3533,-53.8111 0,-19.48068 -0.6165,-23.8164 -4.658,-32.75961 -7.1118,-15.73737 -19.8458,-25.76956 -54.4243,-42.87679 -37.2436,-18.42578 -45.151,-25.82708 -73.8649,-69.13781 -23.252,-35.07218 -25.8419,-37.46742 -76.9323,-71.14894 -17.7177,-11.68046 -37.1555,-26.08108 -43.1952,-32.00136 -10.1671,-9.96615 -11.5137,-12.38021 -18.1661,-32.56417 -21.9965,-66.73964 -53.9389,-103.28776 -100.53679,-115.0328 -17.66898,-4.45349 -51.48001,-3.07285 -67.505,2.7565 -14.85156,5.4025 -36.32026,19.97369 -44.76346,30.38176 -17.11718,21.10066 -23.1837,43.78099 -27.47502,102.7184 -4.43148,60.86229 -6.05158,67.29755 -19.85108,78.85123 -17.4936,14.6466 -45.50546,18.1672 -65.74811,8.26339 -23.83381,-11.6608 -37.45114,-35.6018 -32.83188,-57.72265 2.39553,-11.47181 6.37918,-18.08429 32.11925,-53.31479 22.51268,-30.81317 28.30446,-42.99541 31.1467,-65.51308 2.75967,-21.86337 0.51667,-37.93515 -7.60205,-54.47125 -7.34329,-14.95668 -31.70531,-39.43156 -46.86585,-47.08294 -22.53756,-11.37449 -29.20886,-12.54439 -76.81713,-13.47089 -50.45034,-0.98182 -72.90072,1.48302 -101.85101,11.18226 -49.63618,16.62964 -109.09363,57.56579 -145.92212,100.46661 -7.87065,9.1684 -14.9887,16.6698 -15.81788,16.6698 -3.16288,0 -3.90401,-10.48935 -1.90009,-26.89225 2.59743,-21.26099 7.39254,-41.81654 18.74536,-80.35709 4.88157,-16.57196 8.47538,-32.22437 7.98624,-34.78315 -0.75455,-3.94714 1.7458,-6.68888 16.4961,-18.08866 9.562,-7.39 27.68146,-19.94828 40.26547,-27.90729 84.94109,-53.72269 165.00152,-82.59733 269.85445,-97.32587 28.2806,-3.97254 119.33878,-3.3961 150.33225,0.95166 76.09759,10.67497 142.36685,31.32046 207.92705,64.77748 187.5594,95.71619 314.8679,277.02531 340.6524,485.14708 6.1098,49.31631 5.7629,117.95169 -0.8177,161.76597 -6.8676,45.72561 -7.2127,47.12752 -11.635,47.26456 -2.6862,0.0832 -8.1587,5.18851 -15.8209,14.75948 -11.9873,14.97335 -37.3575,39.31833 -54.5111,52.30823 -30.3144,22.95627 -66.6225,31.12547 -103.6307,23.31657 z m 58.5366,-389.16697 c 4.2763,-0.99138 8.0852,-2.73302 8.4643,-3.87034 0.3791,-1.13729 1.5642,-1.52708 2.6336,-0.86618 2.7047,1.67159 12.8548,-8.39903 17.9128,-17.77242 3.695,-6.84765 4.2022,-10.81516 4.1179,-32.21405 -0.084,-21.36661 -0.7215,-26.04304 -5.1207,-37.56657 -16.543,-43.33408 -47.7845,-71.7442 -80.7233,-73.40754 -21.3594,-1.07858 -33.4302,6.35375 -42.0811,25.91053 -4.8289,10.9166 -7.8661,42.1115 -4.1001,42.1115 1.1915,0 1.696,1.22576 1.1211,2.72392 -1.5143,3.94619 2.5324,17.63659 10.0177,33.89069 12.36,26.83935 33.71,48.65233 56.9891,58.22511 12.2207,5.02536 18.7334,5.62551 30.7687,2.83535 z"
       id="path45" />
    <path
       style="fill:#ed7e72;fill-opacity:1;stroke:#eddde0;stroke-width:14.758;paint-order:stroke fill markers;stroke-opacity:1"
       d="m 1277.3432,623.87991 c -21.6333,-6.81337 -44.7326,-29.04242 -57.4711,-55.30602 -4.3109,-8.88802 -8.2609,-19.87009 -8.7777,-24.40459 -0.5169,-4.53451 -1.7898,-10.50428 -2.8286,-13.26616 -2.7415,-7.28821 1.4111,-30.3493 7.2676,-40.36006 8.1049,-13.85414 21.0762,-18.13222 40.2379,-13.27096 24.078,6.1085 43.2484,24.29244 58.7469,55.72407 8.1171,16.46171 8.1885,16.79511 8.8804,41.47056 0.6689,23.85727 0.4908,25.22808 -4.3515,33.49081 -8.0616,13.75616 -26.3779,20.74923 -41.7039,15.92235 z"
       id="path46" />
    <path
       style="fill:#e16c71;fill-opacity:1;stroke:#eddde0;stroke-width:14.758;paint-order:stroke fill markers;stroke-opacity:1"
       d="m 553.49605,757.63239 c -16.97916,-4.55959 -30.15921,-14.23972 -37.99741,-27.90731 -5.45081,-9.50468 -5.89559,-11.71565 -5.91253,-29.39119 -0.0147,-15.30519 0.76205,-20.64302 3.8984,-26.79077 8.85729,-17.36171 22.64829,-27.36611 43.06024,-31.23716 26.245,-4.97726 53.27059,9.28973 64.52192,34.06157 5.71339,12.57907 5.08051,36.59564 -1.30187,49.40341 -5.80604,11.65121 -17.48657,22.90237 -28.9348,27.87115 -9.50263,4.12435 -29.05339,6.21396 -37.33395,3.9903 z"
       id="path47" />
    <path
       style="fill:#e16c71;fill-opacity:1;stroke:#eddde0;stroke-width:14.758;paint-order:stroke fill markers;stroke-opacity:1"
       d="m 404.76854,824.03112 c -9.25738,-2.28869 -21.24114,-12.73467 -26.08247,-22.73554 -9.21628,-19.03829 -0.66549,-45.77215 17.59273,-55.00329 13.07044,-6.60826 29.27622,-6.07081 42.30731,1.40308 5.52285,3.16759 11.95429,8.85414 14.29208,12.63677 8.13673,13.1655 7.14182,37.00937 -2.03082,48.67049 -9.18541,11.67736 -30.93768,18.7718 -46.07883,15.02849 z"
       id="path48" />
    <path
       style="fill:#e16c71;fill-opacity:1;stroke:#eddde0;stroke-width:14.758;paint-order:stroke fill markers;stroke-opacity:1"
       d="m 323.03491,656.30732 c -9.75466,-4.52677 -14.77665,-11.87568 -14.91395,-21.8243 -0.32456,-23.51687 26.09273,-35.13789 42.52416,-18.70646 8.32383,8.32383 10.20939,18.07785 5.37512,27.80557 -6.96038,14.00597 -19.66434,18.90695 -32.98533,12.72519 z"
       id="path49" />
    <path
       style="fill:#f3cdc3;fill-opacity:1;stroke:#eddde0;stroke-width:14.758;paint-order:stroke fill markers;stroke-opacity:1"
       d="m 722.37579,1426.1775 c -78.17681,-10.7599 -167.45004,-40.5017 -234.2741,-78.0496 -92.69585,-52.0849 -174.09832,-130.8845 -227.92403,-220.636 -56.45802,-94.1406 -90.46504,-211.15575 -90.21632,-310.42631 l 0.0734,-29.2855 6.62586,21.55994 c 12.89438,41.95705 33.52111,85.16712 55.41281,116.08193 13.22721,18.67908 40.08952,44.99285 57.44594,56.27288 20.08563,13.05374 40.21503,20.51306 68.59078,25.41766 15.71136,2.7156 24.42583,5.1703 26.80635,7.5508 2.43185,2.4318 4.78431,11.101 7.5754,27.9162 2.22653,13.414 5.81243,29.8278 7.96866,36.4751 4.05973,12.5155 15.19285,31.2933 26.14255,44.0936 16.70915,19.5332 47.2455,37.9485 75.15525,45.3231 26.61775,7.0333 88.018,5.5777 124.39878,-2.9491 51.84618,-12.1514 88.46317,-43.296 102.80446,-87.4402 8.45193,-26.0161 9.93091,-36.7866 9.97107,-72.613 l 0.0383,-34.16641 -7.32137,-20.01176 c -23.74325,-64.89821 -21.88008,-57.80525 -21.92401,-83.46369 -0.0358,-20.90626 0.45726,-24.37421 4.58017,-32.21406 9.02884,-17.16863 15.27405,-21.00755 44.18888,-27.16286 18.70499,-3.98186 19.89209,-4.54562 28.30933,-13.44393 4.8321,-5.10829 17.82157,-20.821 28.86547,-34.91713 34.44815,-43.96867 59.9149,-58.19022 86.94152,-48.55132 16.9563,6.04738 19.77076,12.71576 23.71329,56.18489 3.31338,36.53232 7.77479,58.17012 14.87124,72.12518 17.22634,33.87544 41.42396,55.00957 93.21643,81.41495 l 22.9663,11.70895 2.6296,10.37974 c 4.203,16.59047 10.8762,29.91945 19.8575,39.66298 16.7585,18.18077 32.7277,23.19957 70.8384,22.26287 l 23.6451,-0.5811 20.4998,10.0001 c 28.8098,14.0538 48.2728,18.9293 75.1661,18.8292 25.5761,-0.095 44.2108,-5.3249 66.7463,-18.7321 22.7072,-13.5093 56.4749,-44.68969 74.3123,-68.61829 5.7817,-7.75616 5.5863,-5.91487 -2.167,20.4188 -20.8539,70.82979 -49.0897,130.69539 -91.1364,193.22769 -35.959,53.4787 -95.8994,114.2472 -151.5051,153.598 -83.9755,59.4275 -171.18834,94.5699 -275.00922,110.815 -28.5881,4.4732 -36.28902,4.8712 -90.78507,4.6917 -37.16637,-0.1224 -66.51827,-1.1556 -78.09468,-2.7489 z"
       id="path50" />
  </g>
</svg>
